<svg width="187" height="187" viewBox="0 0 187 187" fill="none" xmlns="http://www.w3.org/2000/svg">
<path fill-rule="evenodd" clip-rule="evenodd" d="M161.579 85.0121L170.018 76.5208L144.491 50.9941L101.988 93.4968L144.491 136.006L170.018 110.479L144.491 85.0121L136.006 93.5497L153.035 110.532L144.491 119.076L118.918 93.5497L144.491 67.9766L161.579 85.0121Z" fill="#3FBA95"/>
<path fill-rule="evenodd" clip-rule="evenodd" d="M170.017 93.5495L178.562 101.988L187 93.4966L178.562 85.0119L170.017 93.5495Z" fill="#3FBA95"/>
<path fill-rule="evenodd" clip-rule="evenodd" d="M84.9593 25.4737L76.468 16.9824L50.9941 42.5026L93.5498 85.0119L136.006 42.5026L110.532 16.9824L84.9593 42.5555L93.4969 50.9938L110.532 34.0113L119.024 42.5555L93.4969 68.0822L67.9767 42.5555L84.9593 25.4737Z" fill="#4FC6EB"/>
<path fill-rule="evenodd" clip-rule="evenodd" d="M93.4968 16.9826L101.988 8.43838L93.4968 0L84.9592 8.43838L93.4968 16.9826Z" fill="#4FC6EB"/>
<path fill-rule="evenodd" clip-rule="evenodd" d="M25.4209 101.988L16.9825 110.479L42.5027 136.006L85.012 93.5497L42.5027 50.9941L16.9825 76.5208L42.5027 101.988L50.994 93.5497L33.9585 76.5208L42.5027 67.9766L68.0824 93.5497L42.5027 119.076L25.4209 101.988Z" fill="#EA3C71"/>
<path fill-rule="evenodd" clip-rule="evenodd" d="M16.9826 93.5495L8.43838 85.0119L0 93.4966L8.43838 101.988L16.9826 93.5495Z" fill="#EA3C71"/>
<path fill-rule="evenodd" clip-rule="evenodd" d="M93.4967 170.07L85.012 178.562L93.4967 187L101.988 178.562L93.4967 170.07Z" fill="#EFBB45"/>
<path fill-rule="evenodd" clip-rule="evenodd" d="M101.988 161.579L110.479 170.018L136.006 144.491L93.4969 101.988L50.9941 144.491L76.5209 170.018L101.988 144.544L93.4969 136.059L76.468 153.088L67.9238 144.544L93.4969 118.971L119.024 144.544L101.988 161.579Z" fill="#EFBB45"/>
</svg>
