<svg width="82" height="129" viewBox="0 0 82 129" fill="none" xmlns="http://www.w3.org/2000/svg">
<path fill-rule="evenodd" clip-rule="evenodd" d="M70.9888 36.8234L74.644 33.1454L63.5869 22.0883L45.1767 40.4986L63.5869 58.9117L74.644 47.8547L63.5869 36.8234L59.9117 40.5215L67.2879 47.8776L63.5869 51.5786L52.5098 40.5215L63.5869 29.4444L70.9888 36.8234Z" fill="#3FBA95"/>
<path fill-rule="evenodd" clip-rule="evenodd" d="M74.6439 40.5214L78.3449 44.1766L82 40.4985L78.3449 36.8233L74.6439 40.5214Z" fill="#3FBA95"/>
<path fill-rule="evenodd" clip-rule="evenodd" d="M37.8005 11.0341L34.1225 7.35602L23.0883 18.4102L41.5215 36.8233L59.9117 18.4102L48.8776 7.35602L37.8005 18.4331L41.4986 22.0882L48.8776 14.7322L52.5556 18.4331L41.4986 29.4902L30.4444 18.4331L37.8005 11.0341Z" fill="#4FC6EB"/>
<path fill-rule="evenodd" clip-rule="evenodd" d="M41.4986 7.35608L45.1766 3.65513L41.4986 0L37.8005 3.65513L41.4986 7.35608Z" fill="#4FC6EB"/>
<path fill-rule="evenodd" clip-rule="evenodd" d="M12.0112 44.1767L8.3561 47.8547L19.4103 58.9117L37.8234 40.5215L19.4103 22.0883L8.3561 33.1454L19.4103 44.1767L23.0883 40.5215L15.7093 33.1454L19.4103 29.4444L30.4902 40.5215L19.4103 51.5786L12.0112 44.1767Z" fill="#EA3C71"/>
<path fill-rule="evenodd" clip-rule="evenodd" d="M8.35608 40.5214L4.65513 36.8233L1 40.4985L4.65513 44.1766L8.35608 40.5214Z" fill="#EA3C71"/>
<path fill-rule="evenodd" clip-rule="evenodd" d="M41.4986 73.6668L37.8234 77.3449L41.4986 81L45.1767 77.3449L41.4986 73.6668Z" fill="#EFBB45"/>
<path fill-rule="evenodd" clip-rule="evenodd" d="M45.1766 69.9889L48.8547 73.644L59.9117 62.5869L41.4986 44.1767L23.0883 62.5869L34.1454 73.644L45.1766 62.6099L41.4986 58.9347L34.1225 66.3108L30.4215 62.6099L41.4986 51.5328L52.5556 62.6099L45.1766 69.9889Z" fill="#EFBB45"/>
<path d="M15.2656 118.785C14.6484 119.59 13.793 120.199 12.6992 120.613C11.6055 121.027 10.3633 121.234 8.97266 121.234C7.54297 121.234 6.27734 120.91 5.17578 120.262C4.07422 119.613 3.22266 118.688 2.62109 117.484C2.02734 116.273 1.71875 114.863 1.69531 113.254V111.918C1.69531 109.34 2.3125 107.328 3.54688 105.883C4.78125 104.43 6.50391 103.703 8.71484 103.703C10.6133 103.703 12.1211 104.172 13.2383 105.109C14.3555 106.047 15.0273 107.398 15.2539 109.164H12.3477C12.0195 107.109 10.8281 106.082 8.77344 106.082C7.44531 106.082 6.43359 106.562 5.73828 107.523C5.05078 108.477 4.69531 109.879 4.67188 111.73V113.043C4.67188 114.887 5.05859 116.32 5.83203 117.344C6.61328 118.359 7.69531 118.867 9.07812 118.867C10.5938 118.867 11.6719 118.523 12.3125 117.836V114.496H8.79688V112.246H15.2656V118.785ZM23.7734 114.895H17.6211V112.598H23.7734V114.895ZM35.3164 116.605C35.3164 115.855 35.0508 115.277 34.5195 114.871C33.9961 114.465 33.0469 114.055 31.6719 113.641C30.2969 113.227 29.2031 112.766 28.3906 112.258C26.8359 111.281 26.0586 110.008 26.0586 108.438C26.0586 107.062 26.6172 105.93 27.7344 105.039C28.8594 104.148 30.3164 103.703 32.1055 103.703C33.293 103.703 34.3516 103.922 35.2812 104.359C36.2109 104.797 36.9414 105.422 37.4727 106.234C38.0039 107.039 38.2695 107.934 38.2695 108.918H35.3164C35.3164 108.027 35.0352 107.332 34.4727 106.832C33.918 106.324 33.1211 106.07 32.082 106.07C31.1133 106.07 30.3594 106.277 29.8203 106.691C29.2891 107.105 29.0234 107.684 29.0234 108.426C29.0234 109.051 29.3125 109.574 29.8906 109.996C30.4688 110.41 31.4219 110.816 32.75 111.215C34.0781 111.605 35.1445 112.055 35.9492 112.562C36.7539 113.062 37.3438 113.641 37.7188 114.297C38.0938 114.945 38.2812 115.707 38.2812 116.582C38.2812 118.004 37.7344 119.137 36.6406 119.98C35.5547 120.816 34.0781 121.234 32.2109 121.234C30.9766 121.234 29.8398 121.008 28.8008 120.555C27.7695 120.094 26.9648 119.461 26.3867 118.656C25.8164 117.852 25.5312 116.914 25.5312 115.844H28.4961C28.4961 116.812 28.8164 117.562 29.457 118.094C30.0977 118.625 31.0156 118.891 32.2109 118.891C33.2422 118.891 34.0156 118.684 34.5312 118.27C35.0547 117.848 35.3164 117.293 35.3164 116.605ZM44.1758 105.238V108.32H46.4141V110.43H44.1758V117.508C44.1758 117.992 44.2695 118.344 44.457 118.562C44.6523 118.773 44.9961 118.879 45.4883 118.879C45.8164 118.879 46.1484 118.84 46.4844 118.762V120.965C45.8359 121.145 45.2109 121.234 44.6094 121.234C42.4219 121.234 41.3281 120.027 41.3281 117.613V110.43H39.2422V108.32H41.3281V105.238H44.1758ZM47.7148 114.543C47.7148 113.301 47.9609 112.184 48.4531 111.191C48.9453 110.191 49.6367 109.426 50.5273 108.895C51.418 108.355 52.4414 108.086 53.5977 108.086C55.3086 108.086 56.6953 108.637 57.7578 109.738C58.8281 110.84 59.4062 112.301 59.4922 114.121L59.5039 114.789C59.5039 116.039 59.2617 117.156 58.7773 118.141C58.3008 119.125 57.6133 119.887 56.7148 120.426C55.8242 120.965 54.793 121.234 53.6211 121.234C51.832 121.234 50.3984 120.641 49.3203 119.453C48.25 118.258 47.7148 116.668 47.7148 114.684V114.543ZM50.5625 114.789C50.5625 116.094 50.832 117.117 51.3711 117.859C51.9102 118.594 52.6602 118.961 53.6211 118.961C54.582 118.961 55.3281 118.586 55.8594 117.836C56.3984 117.086 56.668 115.988 56.668 114.543C56.668 113.262 56.3906 112.246 55.8359 111.496C55.2891 110.746 54.543 110.371 53.5977 110.371C52.668 110.371 51.9297 110.742 51.3828 111.484C50.8359 112.219 50.5625 113.32 50.5625 114.789ZM68.5508 110.922C68.1758 110.859 67.7891 110.828 67.3906 110.828C66.0859 110.828 65.207 111.328 64.7539 112.328V121H61.9062V108.32H64.625L64.6953 109.738C65.3828 108.637 66.3359 108.086 67.5547 108.086C67.9609 108.086 68.2969 108.141 68.5625 108.25L68.5508 110.922ZM75.6992 121.234C73.8945 121.234 72.4297 120.668 71.3047 119.535C70.1875 118.395 69.6289 116.879 69.6289 114.988V114.637C69.6289 113.371 69.8711 112.242 70.3555 111.25C70.8477 110.25 71.5352 109.473 72.418 108.918C73.3008 108.363 74.2852 108.086 75.3711 108.086C77.0977 108.086 78.4297 108.637 79.3672 109.738C80.3125 110.84 80.7852 112.398 80.7852 114.414V115.562H72.5C72.5859 116.609 72.9336 117.438 73.543 118.047C74.1602 118.656 74.9336 118.961 75.8633 118.961C77.168 118.961 78.2305 118.434 79.0508 117.379L80.5859 118.844C80.0781 119.602 79.3984 120.191 78.5469 120.613C77.7031 121.027 76.7539 121.234 75.6992 121.234ZM75.3594 110.371C74.5781 110.371 73.9453 110.645 73.4609 111.191C72.9844 111.738 72.6797 112.5 72.5469 113.477H77.9727V113.266C77.9102 112.312 77.6562 111.594 77.2109 111.109C76.7656 110.617 76.1484 110.371 75.3594 110.371Z" fill="#262626"/>
</svg>
