<svg width="334" height="334" viewBox="0 0 334 334" fill="none" xmlns="http://www.w3.org/2000/svg">
<path d="M334 255.443H0V255.61H334V255.443Z" fill="#EBEBEB"/>
<path d="M300.533 266.191H278.409V266.358H300.533V266.191Z" fill="#EBEBEB"/>
<path d="M221.255 268.008H195.056V268.175H221.255V268.008Z" fill="#EBEBEB"/>
<path d="M277.741 259.992H239.652V260.159H277.741V259.992Z" fill="#EBEBEB"/>
<path d="M162.397 261.115H116.553V261.282H162.397V261.115Z" fill="#EBEBEB"/>
<path d="M172.571 261.115H168.343V261.282H172.571V261.115Z" fill="#EBEBEB"/>
<path d="M150.394 263.933H65.6844V264.1H150.394V263.933Z" fill="#EBEBEB"/>
<path d="M158.316 225.65H29.3319C28.3214 225.649 27.353 225.246 26.6391 224.531C25.9252 223.816 25.5243 222.847 25.5243 221.836V40.5209C25.5331 39.5162 25.9379 38.5556 26.6508 37.8477C27.3637 37.1398 28.3272 36.7417 29.3319 36.74H158.316C159.328 36.74 160.298 37.1419 161.013 37.8572C161.728 38.5725 162.13 39.5427 162.13 40.5543V221.836C162.13 222.848 161.728 223.818 161.013 224.533C160.298 225.249 159.328 225.65 158.316 225.65ZM29.3319 36.8736C28.3657 36.8754 27.4397 37.2604 26.7572 37.9442C26.0746 38.628 25.6913 39.5547 25.6913 40.5209V221.836C25.6913 222.802 26.0746 223.729 26.7572 224.413C27.4397 225.097 28.3657 225.482 29.3319 225.483H158.316C159.283 225.482 160.209 225.097 160.893 224.413C161.577 223.73 161.962 222.803 161.963 221.836V40.5209C161.962 39.5541 161.577 38.6274 160.893 37.9438C160.209 37.2602 159.283 36.8754 158.316 36.8736H29.3319Z" fill="#EBEBEB"/>
<path d="M302.811 225.65H173.82C172.809 225.649 171.84 225.246 171.125 224.531C170.41 223.816 170.008 222.847 170.006 221.836V40.5209C170.017 39.5156 170.423 38.555 171.137 37.8473C171.851 37.1395 172.815 36.7417 173.82 36.74H302.811C303.815 36.7435 304.776 37.1423 305.488 37.85C306.199 38.5578 306.603 39.5174 306.612 40.5209V221.836C306.612 222.845 306.212 223.814 305.5 224.529C304.787 225.243 303.82 225.647 302.811 225.65ZM173.82 36.8736C172.853 36.8754 171.927 37.2602 171.243 37.9438C170.56 38.6274 170.175 39.5541 170.173 40.5209V221.836C170.175 222.803 170.56 223.73 171.243 224.413C171.927 225.097 172.853 225.482 173.82 225.483H302.811C303.778 225.482 304.705 225.097 305.388 224.413C306.072 223.73 306.457 222.803 306.458 221.836V40.5209C306.457 39.5541 306.072 38.6274 305.388 37.9438C304.705 37.2602 303.778 36.8754 302.811 36.8736H173.82Z" fill="#EBEBEB"/>
<path d="M52.3311 255.443H75.7312L75.7312 176.833H52.3311L52.3311 255.443Z" fill="#F5F5F5"/>
<path d="M52.3244 255.443H56.1855L56.1855 176.833H52.3244L52.3244 255.443Z" fill="#F0F0F0"/>
<path d="M160.981 179.431H72.124V199.097H160.981V179.431Z" fill="#E6E6E6"/>
<path d="M160.981 204.989H72.124V209.532H160.981V204.989Z" fill="#E6E6E6"/>
<path d="M155.784 176.833H52.3244V183.66H155.784V176.833Z" fill="#F0F0F0"/>
<path d="M155.784 255.443H179.184V176.833H155.784V255.443Z" fill="#F5F5F5"/>
<path d="M155.784 255.443H159.645V176.833H155.784V255.443Z" fill="#F0F0F0"/>
<path d="M229.966 255.443V133.974H189.799V255.443H229.966Z" fill="#F0F0F0"/>
<path d="M227.761 172.772V137.013H192.003V172.772H227.761Z" fill="#E6E6E6"/>
<path d="M227.761 211.743V175.985H192.003V211.743H227.761Z" fill="#E6E6E6"/>
<path d="M227.761 250.707V214.949H192.003V250.707H227.761Z" fill="#E6E6E6"/>
<path d="M206.071 172.778V137.02H192.01V172.778H206.071Z" fill="#E0E0E0"/>
<path d="M206.065 211.743V175.985H192.003V211.743H206.065Z" fill="#E0E0E0"/>
<path d="M206.071 250.714V214.956H192.01V250.714H206.071Z" fill="#E0E0E0"/>
<path d="M240.874 255.437V133.967H229.966V255.437H240.874Z" fill="#F5F5F5"/>
<path d="M272.911 255.443V133.974H232.745V255.443H272.911Z" fill="#F0F0F0"/>
<path d="M270.7 172.778V137.02H234.942V172.778H270.7Z" fill="#E6E6E6"/>
<path d="M270.707 211.743V175.985H234.949V211.743H270.707Z" fill="#E6E6E6"/>
<path d="M270.707 250.714V214.956H234.949V250.714H270.707Z" fill="#E6E6E6"/>
<path d="M249.017 172.778V137.02H234.956V172.778H249.017Z" fill="#E0E0E0"/>
<path d="M249.01 211.743V175.985H234.949V211.743H249.01Z" fill="#E0E0E0"/>
<path d="M249.01 250.707V214.949H234.949V250.707H249.01Z" fill="#E0E0E0"/>
<path d="M283.82 255.443V133.974H272.911V255.443H283.82Z" fill="#F5F5F5"/>
<path d="M259.352 170.066C262.957 166.461 262.957 160.616 259.352 157.011C255.747 153.405 249.902 153.405 246.297 157.011C242.691 160.616 242.691 166.461 246.297 170.066C249.902 173.672 255.747 173.672 259.352 170.066Z" fill="#F5F5F5"/>
<path d="M221.328 202.511C221.264 204.917 220.262 207.203 218.537 208.882C216.813 210.561 214.501 211.501 212.093 211.501C209.686 211.501 207.374 210.561 205.649 208.882C203.924 207.203 202.923 204.917 202.858 202.511H221.328Z" fill="#F0F0F0"/>
<path d="M221.328 195.604C221.362 196.837 221.147 198.065 220.698 199.215C220.249 200.364 219.574 201.412 218.713 202.296C217.852 203.181 216.823 203.883 215.686 204.363C214.549 204.843 213.327 205.091 212.093 205.091C210.859 205.091 209.638 204.843 208.501 204.363C207.364 203.883 206.334 203.181 205.474 202.296C204.613 201.412 203.938 200.364 203.489 199.215C203.039 198.065 202.825 196.837 202.858 195.604H221.328Z" fill="#F0F0F0"/>
<path d="M237.374 250.707H266.405V220.106H237.374V250.707Z" fill="#F0F0F0"/>
<path d="M270.7 220.106H266.405V250.707H270.7V220.106Z" fill="#E0E0E0"/>
<path d="M244.929 133.974H256.472V89.2448H244.929V133.974Z" fill="#E6E6E6"/>
<path d="M213.633 133.974H251.943L257.728 81.6162H219.418L213.633 133.974Z" fill="#F0F0F0"/>
<path d="M209.485 133.974H249.05L254.842 81.6162H215.27L209.485 133.974Z" fill="#F5F5F5"/>
<path d="M237.648 133.974H245.33L236.479 81.6162H228.803L237.648 133.974Z" fill="#FAFAFA"/>
<path d="M230.807 133.974H233.787L224.936 81.6162H221.956L230.807 133.974Z" fill="#FAFAFA"/>
<path d="M137.568 158.991V58.3431L47.3879 58.3431V158.991H137.568Z" fill="#EBEBEB"/>
<path d="M138.383 158.984V58.3364H137.568V158.984H138.383Z" fill="#E0E0E0"/>
<path d="M54.0679 152.304H130.888V65.0164L54.0679 65.0164L54.0679 152.304Z" fill="#F5F5F5"/>
<path d="M98.5367 156.98H120.173V126.7H98.5367V156.98Z" fill="white"/>
<path d="M66.8067 146.319H88.4365L89.993 116.038H68.3631L66.8067 146.319Z" fill="white"/>
<path d="M110.614 92.4378H132.244L133.8 62.1507H112.171L110.614 92.4378Z" fill="white"/>
<path d="M82.193 109.769L103.802 110.716L105.128 80.465L83.5191 79.5178L82.193 109.769Z" fill="white"/>
<path d="M51.2201 101.359L72.8409 100.732L71.9637 70.4642L50.343 71.0908L51.2201 101.359Z" fill="white"/>
<path d="M167 285.61C238.531 285.61 296.519 282.225 296.519 278.048C296.519 273.872 238.531 270.487 167 270.487C95.4689 270.487 37.4815 273.872 37.4815 278.048C37.4815 282.225 95.4689 285.61 167 285.61Z" fill="#F5F5F5"/>
<path d="M103.487 272.778H108.65L110.714 260.827H105.551L103.487 272.778Z" fill="#FFC3BD"/>
<path d="M73.1393 272.778H78.303L83.019 260.827H77.8554L73.1393 272.778Z" fill="#FFC3BD"/>
<path d="M79.0244 272.183H72.7318C72.6289 272.185 72.5293 272.22 72.4475 272.282C72.3657 272.345 72.3062 272.432 72.2776 272.531L70.9884 277.12C70.9562 277.225 70.949 277.336 70.9672 277.445C70.9855 277.553 71.0287 277.656 71.0935 277.744C71.1584 277.833 71.243 277.906 71.3407 277.956C71.4383 278.007 71.5464 278.034 71.6564 278.035C73.6604 278.002 75.17 277.881 77.7151 277.881C79.2849 277.881 82.5047 278.048 84.6757 278.048C86.8467 278.048 87.2475 275.904 86.3724 275.71C82.4446 274.842 81.0284 273.64 79.8126 272.497C79.5974 272.299 79.3168 272.187 79.0244 272.183Z" fill="#263238"/>
<path d="M108.644 272.183H103.012C102.908 272.185 102.808 272.219 102.725 272.281C102.642 272.344 102.581 272.431 102.551 272.531L101.269 277.12C101.235 277.225 101.227 277.337 101.244 277.446C101.262 277.555 101.305 277.658 101.37 277.747C101.435 277.836 101.521 277.909 101.619 277.959C101.718 278.009 101.826 278.035 101.937 278.035C103.941 278.002 106.913 277.881 109.465 277.881C112.458 277.881 115.023 278.048 118.53 278.048C120.647 278.048 121.356 275.904 120.48 275.71C116.472 274.829 113.206 274.735 109.846 272.584C109.491 272.339 109.074 272.2 108.644 272.183Z" fill="#263238"/>
<path d="M108.376 124.976C111.102 126.686 113.967 128.41 116.793 130.046C119.619 131.683 122.491 133.273 125.364 134.649C126.078 135.003 126.793 135.317 127.508 135.637C127.862 135.798 128.216 135.925 128.57 136.072L129.104 136.292L129.539 136.452C130.456 136.852 131.47 136.98 132.458 136.82C133.537 136.548 134.506 135.948 135.23 135.103C135.703 134.595 136.134 134.05 136.519 133.473C136.72 133.172 136.913 132.859 137.094 132.538L137.608 131.596L141.389 132.464C141.334 132.967 141.251 133.467 141.142 133.961C141.035 134.428 140.915 134.896 140.768 135.364C140.477 136.322 140.08 137.245 139.585 138.116C139.041 139.066 138.366 139.936 137.581 140.701C136.728 141.543 135.727 142.223 134.629 142.705C133.498 143.195 132.286 143.471 131.055 143.52C129.902 143.572 128.748 143.458 127.628 143.179C127.374 143.119 127.067 143.052 126.853 142.979L126.185 142.772C125.751 142.631 125.303 142.498 124.883 142.344C124.041 142.03 123.173 141.736 122.364 141.389C119.14 140.054 115.994 138.54 112.939 136.853C111.422 136.025 109.926 135.176 108.456 134.281C106.987 133.386 105.537 132.504 104.061 131.509L108.376 124.976Z" fill="#FFC3BD"/>
<path d="M100.607 129.739C101.63 134.669 114.034 141.763 114.034 141.763L118.557 129.879C118.557 129.879 115.023 127.668 109.746 124.141C104.469 120.614 99.4786 124.328 100.607 129.739Z" fill="#263238"/>
<path d="M136.172 133.5L139.759 127.869L142.431 134.001C142.431 134.001 140.307 137.221 137.027 135.564L136.172 133.5Z" fill="#FFC3BD"/>
<path d="M144.335 125.738L146.092 130.333L142.438 133.994L139.759 127.869L144.335 125.738Z" fill="#FFC3BD"/>
<path opacity="0.2" d="M110.714 260.834L109.646 266.993H104.489L105.551 260.834H110.714Z" fill="black"/>
<path opacity="0.2" d="M77.8554 260.834H83.019L80.5808 266.993H75.4239L77.8554 260.834Z" fill="black"/>
<path d="M106.593 122.912C106.593 122.912 113.76 137.688 110.126 167.428L82.7385 171.021C82.2442 166.813 83.4065 145.818 77.8821 126.412C80.8551 125.431 83.8872 124.639 86.9602 124.041C90.8042 123.309 94.6873 122.8 98.5901 122.518C101.264 122.436 103.94 122.568 106.593 122.912Z" fill="#263238"/>
<path opacity="0.2" d="M77.9088 126.426L78.0291 126.386C80.7011 125.637 83.7806 128.456 85.4238 132.571C87.822 138.583 90.6476 146.512 90.6476 146.512L81.7966 148.63C81.1886 141.124 79.8871 133.691 77.9088 126.426Z" fill="black"/>
<path d="M87.1807 110.708C88.1893 114.382 89.4185 121.195 86.987 124.068C90.1379 126.695 94.0011 128.323 98.0824 128.744C100.641 126.025 98.6168 122.551 98.6168 122.551C94.3684 122.09 94.2548 118.957 94.7692 115.931L87.1807 110.708Z" fill="#FFC3BD"/>
<path d="M108.497 156.593L102.358 122.525C101.228 122.728 100.15 123.151 99.1839 123.771C98.2181 124.391 97.3838 125.195 96.7288 126.137C96.0737 127.079 95.6107 128.141 95.3662 129.262C95.1216 130.384 95.1003 131.542 95.3036 132.671L98.343 149.559C98.7591 151.836 100.062 153.856 101.965 155.175C103.869 156.494 106.218 157.004 108.497 156.593Z" fill="#3FBA95"/>
<path opacity="0.3" d="M108.497 156.593L102.358 122.525C101.228 122.728 100.15 123.151 99.1839 123.771C98.2181 124.391 97.3838 125.195 96.7288 126.137C96.0737 127.079 95.6107 128.141 95.3662 129.262C95.1216 130.384 95.1003 131.542 95.3036 132.671L98.343 149.559C98.7591 151.836 100.062 153.856 101.965 155.175C103.869 156.494 106.218 157.004 108.497 156.593Z" fill="black"/>
<path d="M132.017 190.313L127.715 191.088C126.975 191.221 126.216 191.195 125.487 191.011C124.758 190.828 124.077 190.492 123.488 190.025C122.899 189.558 122.416 188.971 122.072 188.303C121.727 187.636 121.529 186.902 121.489 186.152L119.719 152.084C119.65 150.796 120.054 149.528 120.855 148.518C121.656 147.508 122.799 146.826 124.068 146.599L132.024 145.163C132.878 145.011 133.756 145.071 134.582 145.337C135.408 145.604 136.155 146.07 136.759 146.693C137.363 147.317 137.804 148.079 138.044 148.913C138.284 149.747 138.316 150.627 138.136 151.476L134.936 166.452C134.828 166.968 134.796 167.497 134.842 168.022L136.325 184.635C136.444 185.948 136.068 187.258 135.271 188.309C134.474 189.359 133.313 190.074 132.017 190.313Z" fill="#3FBA95"/>
<path opacity="0.2" d="M132.024 145.15L124.068 146.579C122.8 146.808 121.659 147.491 120.859 148.501C120.058 149.51 119.653 150.777 119.719 152.064L120.3 163.373C125.546 162.482 130.806 161.741 136.078 161.148L138.136 151.449C138.315 150.601 138.282 149.722 138.042 148.889C137.801 148.056 137.36 147.295 136.756 146.673C136.152 146.051 135.405 145.586 134.58 145.321C133.755 145.055 132.877 144.996 132.024 145.15Z" fill="black"/>
<path d="M138.597 176.926L131.362 178.222L131.422 165.677L138.657 164.375L138.597 176.926Z" fill="#3FBA95"/>
<path d="M139.692 170.454C139.692 173.92 139.184 176.82 138.597 176.92C138.009 177.02 137.541 174.308 137.555 170.841C137.568 167.374 138.062 164.482 138.657 164.375C139.251 164.268 139.712 167 139.692 170.454Z" fill="#3FBA95"/>
<path opacity="0.2" d="M139.692 170.454C139.692 173.92 139.184 176.82 138.597 176.92C138.009 177.02 137.541 174.308 137.555 170.841C137.568 167.374 138.062 164.482 138.657 164.375C139.251 164.268 139.712 167 139.692 170.454Z" fill="black"/>
<path d="M109.018 114.034C106.64 114.468 104.532 115.827 103.154 117.813C101.777 119.799 101.243 122.25 101.67 124.629L107.107 154.842C107.54 157.221 108.898 159.33 110.884 160.708C112.871 162.086 115.323 162.619 117.702 162.19C135.457 158.999 153.487 157.587 171.522 157.975L190.073 158.383L178.196 92.3644L160.948 99.2114C144.175 105.871 126.779 110.837 109.018 114.034Z" fill="#3FBA95"/>
<path opacity="0.3" d="M156.646 100.868L166.906 157.922C167.808 157.922 168.717 157.922 169.619 157.922L159.171 99.8727C158.316 100.247 157.488 100.567 156.646 100.868Z" fill="black"/>
<path d="M186.92 124.916C190.2 143.146 191.596 158.149 190.059 158.43C188.523 158.71 184.602 144.154 181.322 125.925C178.042 107.695 176.646 92.6917 178.182 92.4111C179.719 92.1306 183.64 106.653 186.92 124.916Z" fill="#3FBA95"/>
<path opacity="0.2" d="M186.92 124.916C190.2 143.146 191.596 158.149 190.059 158.43C188.523 158.71 184.602 144.154 181.322 125.925C178.042 107.695 176.646 92.6917 178.182 92.4111C179.719 92.1306 183.64 106.653 186.92 124.916Z" fill="black"/>
<path opacity="0.2" d="M90.2735 112.832L94.7625 115.911C94.632 116.612 94.5627 117.323 94.5554 118.036C92.9455 118.036 90.6276 116.539 90.3336 114.883C90.1901 114.208 90.1698 113.513 90.2735 112.832Z" fill="black"/>
<path d="M94.0611 95.711C96.7732 95.9582 100.861 103.246 98.1426 105.811C95.4238 108.376 88.9242 95.2368 94.0611 95.711Z" fill="#263238"/>
<path d="M84.5421 106.105C86.1252 110.915 86.7999 113.821 89.9395 115.544C94.6556 118.136 100.147 113.954 100.046 108.684C99.9595 103.941 97.3744 96.8734 92.0704 96.4592C90.8681 96.3858 89.666 96.6061 88.5679 97.1012C87.4697 97.5962 86.5086 98.3511 85.7675 99.3007C85.0264 100.25 84.5275 101.366 84.314 102.552C84.1005 103.737 84.1788 104.957 84.5421 106.105Z" fill="#FFC3BD"/>
<path d="M97.528 94.9295C96.21 94.6606 94.8638 94.5552 93.52 94.6155C94.301 93.8955 95.0102 93.1013 95.6376 92.2441C94.3815 93.1045 92.9875 93.7439 91.516 94.1346C91.762 93.5194 91.9151 92.871 91.9702 92.2107C90.9482 93.4398 89.2114 94.2748 87.3343 94.9762C88.1346 93.9793 88.752 92.8485 89.158 91.6362C87.989 93.7939 83.6002 95.6442 80.8347 97.4812H80.7946C80.6003 97.5963 80.415 97.7258 80.2402 97.8687C80.0141 98.0276 79.8194 98.2269 79.6657 98.4565C79.4041 98.7457 79.2072 99.0873 79.0879 99.4586C78.9687 99.8298 78.9299 100.222 78.9741 100.61C79.0184 100.997 79.1446 101.371 79.3445 101.705C79.5444 102.04 79.8133 102.329 80.1333 102.551C79.6274 102.91 79.2656 103.437 79.1127 104.038C78.9597 104.639 79.0255 105.274 79.2983 105.831C79.2582 104.896 79.4786 103.874 80.1533 103.46C79.0177 106.746 82.8253 109.846 86.2188 110.721C88.2228 111.229 89.4519 103.56 87.5548 100.527C90.1266 100.2 92.3243 99.5587 93.6402 98.6502C92.6495 98.9717 91.5981 99.0609 90.5674 98.9108C93.039 97.9355 95.6977 96.5594 97.7952 96.9068C96.7851 96.5391 95.7171 96.3558 94.6422 96.3657C95.353 96.0743 96.1119 95.918 96.88 95.9048C99.1312 95.9983 100.614 97.9088 100.04 99.1913C100.901 97.8086 100.587 95.5774 97.528 94.9295Z" fill="#263238"/>
<path d="M83.7271 112.224C84.1966 112.638 84.7457 112.951 85.3407 113.146C85.9357 113.34 86.5641 113.41 87.1874 113.353C88.8774 113.193 89.1914 111.509 88.3096 110.213C87.4946 109.051 85.6376 107.728 84.1413 108.537C83.8191 108.709 83.5435 108.956 83.3385 109.259C83.1334 109.561 83.0049 109.908 82.9642 110.271C82.9234 110.634 82.9716 111.002 83.1045 111.342C83.2374 111.682 83.4511 111.985 83.7271 112.224Z" fill="#FFC3BD"/>
<path d="M110.126 167.441C110.126 167.441 124.154 206.005 122.665 221.736C121.135 238.109 111.656 265.824 111.656 265.824H102.912C102.912 265.824 108.042 239.104 108.59 223.012C109.185 205.49 93.1259 183.333 92.1439 169.832L110.126 167.441Z" fill="#3FBA95"/>
<path opacity="0.2" d="M95.8179 180.734C95.5036 180.532 95.1616 180.377 94.8026 180.273C97.8754 188.55 102.852 198.202 105.911 207.621C106.245 192.05 102.872 185.116 95.8179 180.734Z" fill="black"/>
<path d="M100.42 168.717C100.42 168.717 104.428 206.86 100.36 221.629C95.9048 237.808 83.0792 265.797 83.0792 265.797H73.627C73.627 265.797 81.8567 239.144 84.7959 223.112C87.989 205.744 83.7071 183.961 82.7919 171.048L100.42 168.717Z" fill="#3FBA95"/>
<path d="M84.7425 266.004H72.7385L73.5468 262.464H86.3991L84.7425 266.004Z" fill="#3FBA95"/>
<path opacity="0.4" d="M84.7425 266.004H72.7385L73.5468 262.464H86.3991L84.7425 266.004Z" fill="black"/>
<path d="M113.593 266.004H101.716L101.91 262.638L114.255 262.464L113.593 266.004Z" fill="#3FBA95"/>
<path opacity="0.4" d="M113.593 266.004H101.716L101.91 262.638L114.255 262.464L113.593 266.004Z" fill="black"/>
<path d="M92.3644 105.096C92.4646 105.491 92.7652 105.764 93.0324 105.664C93.2996 105.564 93.4198 105.19 93.3196 104.789C93.2194 104.388 92.9188 104.121 92.6516 104.221C92.3844 104.322 92.2575 104.696 92.3644 105.096Z" fill="#263238"/>
<path d="M96.86 103.647C96.9669 104.048 97.2608 104.315 97.528 104.221C97.7952 104.128 97.9221 103.74 97.8152 103.346C97.7084 102.952 97.4144 102.678 97.1472 102.772C96.88 102.865 96.7865 103.246 96.86 103.647Z" fill="#263238"/>
<path d="M95.524 104.308C96.3164 105.372 97.2592 106.315 98.3229 107.107C98.1053 107.389 97.83 107.621 97.5155 107.788C97.2011 107.955 96.8546 108.053 96.4993 108.076L95.524 104.308Z" fill="#ED847E"/>
<path d="M95.6042 109.552C95.0851 109.741 94.5272 109.799 93.9805 109.72C93.4337 109.64 92.9151 109.427 92.4712 109.098C92.4595 109.087 92.4502 109.073 92.4438 109.058C92.4374 109.043 92.4342 109.027 92.4342 109.011C92.4342 108.995 92.4374 108.979 92.4438 108.964C92.4502 108.949 92.4595 108.935 92.4712 108.924C92.4936 108.902 92.5236 108.89 92.5547 108.89C92.5859 108.89 92.6158 108.902 92.6382 108.924C93.0545 109.223 93.537 109.415 94.0443 109.486C94.5516 109.557 95.0685 109.504 95.5507 109.332C95.5656 109.326 95.5814 109.325 95.5971 109.326C95.6128 109.327 95.628 109.332 95.6418 109.339C95.6557 109.347 95.6678 109.357 95.6774 109.37C95.687 109.382 95.6939 109.396 95.6977 109.412C95.7006 109.442 95.6929 109.473 95.6758 109.498C95.6588 109.524 95.6335 109.543 95.6042 109.552Z" fill="#263238"/>
<path d="M90.6209 104.074C90.5705 104.088 90.5176 104.088 90.4672 104.074C90.4372 104.063 90.4097 104.046 90.3865 104.024C90.3634 104.002 90.3449 103.976 90.3324 103.946C90.3199 103.917 90.3135 103.885 90.3137 103.853C90.314 103.821 90.3207 103.79 90.3336 103.76C90.4719 103.387 90.6937 103.051 90.982 102.776C91.2703 102.502 91.6174 102.297 91.997 102.177C92.0277 102.169 92.0597 102.168 92.0911 102.173C92.1224 102.178 92.1524 102.189 92.1793 102.206C92.2062 102.223 92.2293 102.245 92.2474 102.271C92.2654 102.297 92.2779 102.327 92.2842 102.358C92.2933 102.423 92.2787 102.489 92.2432 102.544C92.2076 102.599 92.1534 102.64 92.0905 102.658C91.7861 102.753 91.5074 102.915 91.2758 103.134C91.0442 103.353 90.8658 103.622 90.7545 103.921C90.7308 103.987 90.6831 104.042 90.6209 104.074Z" fill="#263238"/>
<path d="M98.4699 101.463C98.4272 101.477 98.3814 101.478 98.3377 101.468C98.294 101.457 98.2542 101.435 98.2227 101.402C98.0321 101.167 97.7857 100.982 97.5058 100.865C97.2258 100.749 96.9212 100.704 96.6195 100.734C96.5891 100.741 96.5575 100.741 96.527 100.735C96.4964 100.729 96.4676 100.716 96.4423 100.698C96.4171 100.679 96.396 100.656 96.3805 100.629C96.365 100.602 96.3554 100.572 96.3523 100.541C96.3458 100.476 96.3633 100.411 96.4014 100.358C96.4396 100.305 96.4958 100.268 96.5594 100.253C96.9321 100.206 97.3108 100.253 97.6608 100.389C98.0108 100.526 98.3211 100.748 98.5634 101.035C98.6076 101.082 98.6321 101.144 98.6321 101.209C98.6321 101.273 98.6076 101.335 98.5634 101.382C98.5418 101.419 98.5089 101.447 98.4699 101.463Z" fill="#263238"/>
<path d="M83.4065 130.594C83.981 132.832 84.5822 135.183 85.2301 137.461C85.8781 139.739 86.526 142.03 87.2341 144.275C87.9422 146.519 88.7304 148.737 89.5654 150.888C90.3471 152.963 91.292 154.974 92.3911 156.9C92.5247 157.107 92.6516 157.347 92.7852 157.534L92.9923 157.835L93.0925 157.982C93.2834 158.213 93.5087 158.414 93.7605 158.577C94.6098 159.165 95.5031 159.688 96.4325 160.14C98.4365 161.135 100.621 162.05 102.825 162.912C107.247 164.635 111.83 166.252 116.372 167.802L115.491 171.576C110.59 170.866 105.737 169.867 100.955 168.583C98.4978 167.929 96.0802 167.135 93.7137 166.205C92.409 165.696 91.1489 165.079 89.9462 164.361C89.1588 163.889 88.4396 163.312 87.8086 162.645L87.508 162.324L87.341 162.11L87.0003 161.669C86.7665 161.375 86.5862 161.088 86.3791 160.794C84.9172 158.582 83.6606 156.241 82.6249 153.8C81.5828 151.469 80.7011 149.124 79.8794 146.74C78.2398 142.03 76.8639 137.233 75.7579 132.371L83.4065 130.594Z" fill="#FFC3BD"/>
<path d="M74.8494 129.265C72.311 135.183 76.4392 148.683 76.4392 148.683L88.7972 145.51C88.0336 140.747 86.9331 136.043 85.504 131.436C83.3664 125.11 76.82 124.709 74.8494 129.265Z" fill="#263238"/>
<path d="M80.681 273.085C80.23 273.074 79.7818 273.011 79.345 272.898C79.3223 272.892 79.302 272.879 79.2866 272.861C79.2711 272.843 79.2613 272.821 79.2582 272.798C79.2574 272.774 79.2632 272.75 79.2749 272.728C79.2867 272.707 79.304 272.69 79.325 272.678C79.5187 272.557 81.2422 271.535 81.7966 271.829C81.8581 271.863 81.9086 271.913 81.9418 271.975C81.975 272.037 81.9896 272.107 81.9836 272.177C81.9935 272.303 81.9725 272.43 81.9224 272.546C81.8724 272.662 81.7948 272.765 81.6964 272.845C81.3938 273.035 81.0368 273.119 80.681 273.085ZM79.7058 272.724C80.308 272.926 80.9641 272.893 81.5428 272.631C81.6077 272.578 81.6592 272.51 81.6928 272.434C81.7265 272.357 81.7415 272.274 81.7365 272.19C81.7386 272.161 81.7329 272.132 81.72 272.106C81.7071 272.081 81.6874 272.059 81.663 272.043C81.3758 271.876 80.4005 272.337 79.7058 272.724Z" fill="#3FBA95"/>
<path d="M79.3651 272.898H79.305C79.287 272.887 79.2725 272.871 79.263 272.852C79.2536 272.833 79.2496 272.812 79.2515 272.791C79.2515 272.724 79.472 271.235 80.0999 270.747C80.1719 270.685 80.2562 270.64 80.3472 270.613C80.4382 270.587 80.5338 270.58 80.6276 270.593C80.7176 270.591 80.8054 270.621 80.8744 270.679C80.9433 270.737 80.9886 270.818 81.0017 270.907C81.0752 271.489 79.9796 272.617 79.4252 272.911C79.4042 272.914 79.3828 272.91 79.3651 272.898ZM80.5341 270.807C80.4292 270.811 80.3284 270.848 80.2468 270.914C79.8611 271.374 79.6154 271.935 79.5388 272.531C80.0932 272.13 80.8013 271.275 80.7545 270.934C80.7545 270.934 80.7545 270.834 80.5875 270.814L80.5341 270.807Z" fill="#3FBA95"/>
<path d="M110.741 273.085C110.2 273.074 109.661 273.011 109.131 272.898C109.106 272.895 109.083 272.883 109.066 272.865C109.049 272.847 109.039 272.823 109.038 272.798C109.035 272.772 109.041 272.745 109.054 272.723C109.067 272.7 109.087 272.682 109.111 272.671C109.352 272.551 111.483 271.495 112.09 271.849C112.147 271.881 112.195 271.928 112.227 271.984C112.26 272.041 112.278 272.105 112.277 272.17C112.282 272.283 112.26 272.396 112.214 272.499C112.168 272.602 112.098 272.693 112.01 272.764C111.635 273.01 111.188 273.123 110.741 273.085ZM109.545 272.724C110.674 272.911 111.549 272.865 111.857 272.584C111.915 272.537 111.961 272.476 111.991 272.408C112.021 272.339 112.034 272.265 112.03 272.19C112.032 272.165 112.027 272.139 112.015 272.117C112.004 272.094 111.986 272.076 111.963 272.063C111.629 271.876 110.42 272.317 109.552 272.724H109.545Z" fill="#3FBA95"/>
<path d="M109.151 272.898C109.129 272.905 109.106 272.905 109.084 272.898C109.067 272.885 109.054 272.868 109.045 272.848C109.037 272.828 109.035 272.806 109.038 272.784C109.131 272.039 109.451 271.34 109.953 270.78C110.14 270.627 110.379 270.551 110.621 270.567C110.955 270.607 111.042 270.774 111.062 270.914C111.122 271.495 109.819 272.611 109.185 272.918L109.151 272.898ZM110.534 270.807C110.375 270.807 110.221 270.864 110.1 270.968C109.689 271.409 109.419 271.962 109.325 272.557C109.993 272.177 110.875 271.302 110.835 270.947C110.835 270.947 110.835 270.834 110.607 270.814L110.534 270.807Z" fill="#3FBA95"/>
<path d="M115.39 167.715L120.554 166.866L118.476 173.286C118.476 173.286 113.974 173.025 113.981 170.567L115.39 167.715Z" fill="#FFC3BD"/>
<path d="M125.444 169.251L123.466 174.435L118.476 173.286L120.554 166.866L125.444 169.251Z" fill="#FFC3BD"/>
<path d="M262.076 95.878L254.508 67.7552C254.361 67.2069 254.107 66.6929 253.761 66.2427C253.415 65.7925 252.984 65.4148 252.492 65.1313C252 64.8478 251.457 64.664 250.894 64.5904C250.331 64.5169 249.759 64.5549 249.211 64.7025L194.435 79.3985C193.327 79.6973 192.383 80.4239 191.81 81.4185C191.238 82.4131 191.084 83.5942 191.382 84.7024L198.944 112.825C199.241 113.933 199.966 114.877 200.959 115.451C201.953 116.025 203.133 116.181 204.241 115.885L211.97 113.807L222.611 119.933L220.346 111.556L259.024 101.162C260.127 100.863 261.068 100.139 261.64 99.1494C262.211 98.1595 262.369 96.9834 262.076 95.878Z" fill="#3FBA95"/>
<path opacity="0.2" d="M262.076 95.878L254.508 67.7552C254.361 67.2069 254.107 66.6929 253.761 66.2427C253.415 65.7925 252.984 65.4148 252.492 65.1313C252 64.8478 251.457 64.664 250.894 64.5904C250.331 64.5169 249.759 64.5549 249.211 64.7025L194.435 79.3985C193.327 79.6973 192.383 80.4239 191.81 81.4185C191.238 82.4131 191.084 83.5942 191.382 84.7024L198.944 112.825C199.241 113.933 199.966 114.877 200.959 115.451C201.953 116.025 203.133 116.181 204.241 115.885L211.97 113.807L222.611 119.933L220.346 111.556L259.024 101.162C260.127 100.863 261.068 100.139 261.64 99.1494C262.211 98.1595 262.369 96.9834 262.076 95.878Z" fill="black"/>
<path d="M284.394 154.762L287.32 135.724C287.435 134.975 287.248 134.21 286.799 133.599C286.351 132.988 285.678 132.58 284.929 132.464L247.828 126.76C247.457 126.702 247.078 126.718 246.713 126.807C246.348 126.896 246.004 127.056 245.701 127.278C245.398 127.5 245.142 127.78 244.948 128.102C244.753 128.423 244.624 128.78 244.568 129.151L241.636 148.189C241.521 148.939 241.708 149.703 242.156 150.314C242.605 150.926 243.278 151.334 244.027 151.449L249.258 152.257L254.06 158.804L254.936 153.126L281.108 157.134C281.479 157.195 281.859 157.182 282.226 157.095C282.593 157.009 282.938 156.851 283.244 156.631C283.549 156.411 283.808 156.132 284.005 155.811C284.203 155.491 284.335 155.134 284.394 154.762Z" fill="#3FBA95"/>
<path opacity="0.3" d="M284.394 154.762L287.32 135.724C287.435 134.975 287.248 134.21 286.799 133.599C286.351 132.988 285.678 132.58 284.929 132.464L247.828 126.76C247.457 126.702 247.078 126.718 246.713 126.807C246.348 126.896 246.004 127.056 245.701 127.278C245.398 127.5 245.142 127.78 244.948 128.102C244.753 128.423 244.624 128.78 244.568 129.151L241.636 148.189C241.521 148.939 241.708 149.703 242.156 150.314C242.605 150.926 243.278 151.334 244.027 151.449L249.258 152.257L254.06 158.804L254.936 153.126L281.108 157.134C281.479 157.195 281.859 157.182 282.226 157.095C282.593 157.009 282.938 156.851 283.244 156.631C283.549 156.411 283.808 156.132 284.005 155.811C284.203 155.491 284.335 155.134 284.394 154.762Z" fill="white"/>
<path d="M283.078 123.901L278.309 89.8326C278.12 88.4889 277.405 87.2752 276.322 86.4584C275.238 85.6416 273.874 85.2887 272.531 85.4773L206.125 94.7625C204.781 94.9513 203.567 95.6661 202.751 96.7496C201.934 97.8332 201.581 99.1969 201.769 100.541L206.539 134.609C206.631 135.274 206.853 135.915 207.193 136.494C207.533 137.074 207.984 137.58 208.52 137.985C209.057 138.389 209.667 138.684 210.318 138.852C210.968 139.02 211.645 139.058 212.31 138.964L221.662 137.628L233.252 146.372L231.829 136.205L278.703 129.652C280.044 129.466 281.257 128.757 282.077 127.679C282.897 126.601 283.257 125.243 283.078 123.901Z" fill="#3FBA95"/>
<path d="M212.711 109.726L216.472 109.198L222.384 115.718L221.375 108.51L225.169 107.982L226.993 121.008L223.199 121.543L217.32 115.07L218.322 122.224L214.535 122.752L212.711 109.726Z" fill="white"/>
<path d="M227.835 107.608L238.63 106.098L239.017 108.884L232.264 109.826L232.551 111.897L238.817 111.022L239.191 113.694L232.925 114.569L233.279 117.134L240.233 116.165L240.647 119.111L229.658 120.647L227.835 107.608Z" fill="white"/>
<path d="M239.652 105.958L243.473 105.424L245.871 112.525L246.866 104.949L250.674 104.415L253.713 111.416L254.074 103.941L257.875 103.406L256.826 116.84L252.878 117.388L249.445 109.505L248.316 118.029L244.368 118.577L239.652 105.958Z" fill="white"/>
<path d="M259.705 112.037L263.506 111.262C263.61 111.758 263.84 112.218 264.174 112.598C264.424 112.831 264.726 113.001 265.054 113.095C265.383 113.189 265.729 113.204 266.064 113.139C266.546 113.104 266.998 112.892 267.334 112.545C267.461 112.414 267.558 112.256 267.617 112.082C267.676 111.909 267.696 111.724 267.674 111.543C267.645 111.369 267.579 111.204 267.48 111.059C267.38 110.913 267.251 110.791 267.1 110.701C266.421 110.391 265.682 110.231 264.935 110.233C263.535 110.202 262.162 109.841 260.927 109.178C260.519 108.922 260.173 108.578 259.915 108.172C259.658 107.765 259.494 107.305 259.438 106.827C259.341 106.142 259.453 105.443 259.758 104.823C260.102 104.132 260.641 103.558 261.308 103.173C262.279 102.649 263.344 102.324 264.441 102.217C265.765 101.947 267.139 102.085 268.382 102.611C268.888 102.899 269.327 103.293 269.667 103.766C270.007 104.238 270.241 104.779 270.353 105.35L266.592 106.105C266.473 105.622 266.183 105.197 265.777 104.909C265.35 104.68 264.857 104.604 264.381 104.696C264 104.72 263.641 104.879 263.366 105.143C263.267 105.245 263.193 105.367 263.149 105.501C263.105 105.636 263.092 105.778 263.112 105.918C263.131 106.028 263.174 106.131 263.239 106.222C263.304 106.312 263.388 106.386 263.486 106.439C263.932 106.636 264.415 106.734 264.902 106.726C266.236 106.78 267.558 106.988 268.843 107.348C269.566 107.571 270.211 107.992 270.707 108.563C271.137 109.097 271.41 109.74 271.495 110.42C271.615 111.241 271.488 112.078 271.128 112.825C270.755 113.606 270.16 114.258 269.418 114.702C268.474 115.237 267.43 115.571 266.352 115.684C264.125 115.996 262.531 115.773 261.569 115.016C260.617 114.273 259.957 113.218 259.705 112.037Z" fill="white"/>
</svg>
