<svg width="334" height="334" viewBox="0 0 334 334" fill="none" xmlns="http://www.w3.org/2000/svg">
<path d="M334 255.443H0V255.61H334V255.443Z" fill="#EBEBEB"/>
<path d="M57.1674 266.191H35.0433V266.358H57.1674V266.191Z" fill="#EBEBEB"/>
<path d="M120.126 268.008H114.322V268.175H120.126V268.008Z" fill="#EBEBEB"/>
<path d="M74.816 259.992H57.8354V260.159H74.816V259.992Z" fill="#EBEBEB"/>
<path d="M300.533 261.115H281.896V261.282H300.533V261.115Z" fill="#EBEBEB"/>
<path d="M275.951 261.115H261.502V261.282H275.951V261.115Z" fill="#EBEBEB"/>
<path d="M219.545 263.933H185.176V264.1H219.545V263.933Z" fill="#EBEBEB"/>
<path d="M158.316 225.65H29.3319C28.3214 225.649 27.353 225.246 26.6391 224.531C25.9252 223.816 25.5243 222.847 25.5243 221.836V40.5209C25.5331 39.5162 25.9379 38.5556 26.6508 37.8477C27.3638 37.1398 28.3272 36.7417 29.3319 36.74H158.316C159.328 36.74 160.298 37.1419 161.013 37.8572C161.728 38.5725 162.13 39.5427 162.13 40.5543V221.836C162.13 222.848 161.728 223.818 161.013 224.533C160.298 225.249 159.328 225.65 158.316 225.65ZM29.3319 36.8736C28.3657 36.8754 27.4397 37.2604 26.7572 37.9442C26.0746 38.628 25.6913 39.5547 25.6913 40.5209V221.836C25.6913 222.802 26.0746 223.729 26.7572 224.413C27.4397 225.097 28.3657 225.482 29.3319 225.483H158.316C159.283 225.482 160.209 225.097 160.893 224.413C161.577 223.73 161.962 222.803 161.963 221.836V40.5209C161.962 39.5541 161.577 38.6274 160.893 37.9438C160.209 37.2602 159.283 36.8754 158.316 36.8736H29.3319Z" fill="#EBEBEB"/>
<path d="M302.811 225.65H173.82C172.809 225.649 171.84 225.246 171.125 224.531C170.41 223.816 170.008 222.847 170.006 221.836V40.5209C170.017 39.5156 170.423 38.555 171.137 37.8473C171.851 37.1395 172.815 36.7417 173.82 36.74H302.811C303.815 36.7435 304.776 37.1423 305.488 37.85C306.199 38.5578 306.603 39.5174 306.612 40.5209V221.836C306.612 222.845 306.212 223.814 305.5 224.529C304.787 225.243 303.82 225.647 302.811 225.65ZM173.82 36.8736C172.853 36.8754 171.927 37.2602 171.243 37.9438C170.56 38.6274 170.175 39.5541 170.173 40.5209V221.836C170.175 222.803 170.56 223.73 171.243 224.413C171.927 225.097 172.853 225.482 173.82 225.483H302.811C303.778 225.482 304.705 225.097 305.388 224.413C306.072 223.73 306.457 222.803 306.458 221.836V40.5209C306.457 39.5541 306.072 38.6274 305.388 37.9438C304.705 37.2602 303.778 36.8754 302.811 36.8736H173.82Z" fill="#EBEBEB"/>
<path d="M46.7733 118.189H49.9797L52.0172 88.6837H47.8488L46.7733 118.189Z" fill="#E6E6E6"/>
<path d="M48.6371 118.189H51.8435L53.8809 88.6837H50.6678L48.6371 118.189Z" fill="#F5F5F5"/>
<path d="M129.886 118.189H133.092L135.13 88.6837H130.961L129.886 118.189Z" fill="#E6E6E6"/>
<path d="M131.75 118.189H134.956L136.993 88.6837H133.78L131.75 118.189Z" fill="#F5F5F5"/>
<path d="M38.8375 88.6837H60.2402V83.6804H38.8375V88.6837Z" fill="#E6E6E6"/>
<path d="M148.824 83.6804H60.2402V88.6837H148.824V83.6804Z" fill="#F5F5F5"/>
<path d="M38.8375 110.634H60.2402V105.631H38.8375V110.634Z" fill="#E6E6E6"/>
<path d="M148.824 105.624H60.2402V110.627H148.824V105.624Z" fill="#F5F5F5"/>
<path d="M101.088 56.3258H75.0965C71.684 56.3258 68.9175 59.0922 68.9175 62.5048V77.4947C68.9175 80.9073 71.684 83.6737 75.0965 83.6737H101.088C104.501 83.6737 107.267 80.9073 107.267 77.4947V62.5048C107.267 59.0922 104.501 56.3258 101.088 56.3258Z" fill="#E0E0E0"/>
<path d="M103.159 80.6744H77.1607C75.4345 80.6726 73.7796 79.9856 72.5596 78.7644C71.3396 77.5432 70.6544 75.8876 70.6544 74.1614V59.1648C70.6561 57.4391 71.342 55.7845 72.5616 54.5637C73.7812 53.3428 75.435 52.6553 77.1607 52.6518H103.159C104.886 52.6535 106.542 53.3403 107.763 54.5613C108.984 55.7824 109.67 57.438 109.672 59.1648V74.148C109.673 75.0042 109.505 75.8522 109.179 76.6435C108.852 77.4348 108.372 78.154 107.767 78.7601C107.163 79.3661 106.444 79.8471 105.654 80.1755C104.863 80.504 104.015 80.6735 103.159 80.6744ZM77.1607 53.3198C75.6122 53.3233 74.1282 53.9405 73.0339 55.036C71.9396 56.1316 71.3241 57.6163 71.3224 59.1648V74.148C71.3241 75.6965 71.9396 77.1812 73.0339 78.2767C74.1282 79.3723 75.6122 79.9895 77.1607 79.993H103.159C104.708 79.9895 106.193 79.3725 107.288 78.2772C108.384 77.1818 109.001 75.6971 109.004 74.148V59.1648C109.001 57.6157 108.384 56.131 107.288 55.0356C106.193 53.9402 104.708 53.3233 103.159 53.3198H77.1607Z" fill="#E0E0E0"/>
<path d="M107.107 56.3258H81.1152C77.7027 56.3258 74.9362 59.0922 74.9362 62.5048V77.4947C74.9362 80.9073 77.7027 83.6737 81.1152 83.6737H107.107C110.52 83.6737 113.286 80.9073 113.286 77.4947V62.5048C113.286 59.0922 110.52 56.3258 107.107 56.3258Z" fill="#F0F0F0"/>
<path d="M113.286 70.0064H73.146V70.9216H113.286V70.0064Z" fill="#E0E0E0"/>
<path d="M113.286 74.7358H73.146V75.651H113.286V74.7358Z" fill="#E0E0E0"/>
<path d="M102.56 79.2496C106.867 78.6427 109.866 74.6592 109.259 70.3521C108.653 66.045 104.669 63.0453 100.362 63.6522C96.0549 64.259 93.0552 68.2426 93.6621 72.5497C94.2689 76.8568 98.2525 79.8564 102.56 79.2496Z" fill="#E0E0E0"/>
<path d="M106.73 77.2154C110.204 74.5977 110.898 69.6596 108.28 66.1858C105.663 62.7121 100.725 62.0181 97.2508 64.6357C93.777 67.2534 93.083 72.1915 95.7007 75.6653C98.3183 79.1391 103.256 79.8331 106.73 77.2154Z" fill="#F5F5F5"/>
<path d="M106.655 75.5853C109.23 73.0105 109.23 68.8359 106.655 66.2611C104.081 63.6864 99.906 63.6864 97.3313 66.2612C94.7565 68.8359 94.7565 73.0105 97.3313 75.5853C99.906 78.1601 104.081 78.1601 106.655 75.5853Z" fill="#EBEBEB"/>
<path d="M66.3858 163.774H48.8842V252.891H66.3858V163.774Z" fill="#F0F0F0"/>
<path d="M138.55 252.891H52.2443V255.437H138.55V252.891Z" fill="#F0F0F0"/>
<path d="M66.3858 252.898H141.91V163.78H66.3858L66.3858 252.898Z" fill="#F5F5F5"/>
<path d="M135.036 174.735V203.967H73.2662V174.735H95.524V175.31C95.5275 175.735 95.6985 176.142 95.9998 176.442C96.3011 176.742 96.7086 176.911 97.1339 176.913H111.209C111.633 176.911 112.04 176.742 112.34 176.442C112.641 176.141 112.81 175.735 112.812 175.31V174.735H135.036Z" fill="#E0E0E0"/>
<path d="M141.436 173.727L135.036 203.967H73.2662L79.6724 173.727H101.917L101.797 174.321C101.738 174.514 101.725 174.718 101.76 174.917C101.795 175.116 101.876 175.304 101.997 175.465C102.118 175.626 102.276 175.757 102.457 175.846C102.638 175.935 102.837 175.98 103.039 175.978H117.12C117.581 175.951 118.021 175.775 118.373 175.476C118.725 175.177 118.97 174.772 119.071 174.321L119.191 173.727H141.436Z" fill="#EBEBEB"/>
<path d="M73.2663 241.923H135.03V212.698H73.2663V241.923Z" fill="#EBEBEB"/>
<path d="M111.182 210.861H97.1072C96.2217 210.861 95.504 211.579 95.504 212.464V213.266C95.504 214.151 96.2217 214.869 97.1072 214.869H111.182C112.067 214.869 112.785 214.151 112.785 213.266V212.464C112.785 211.579 112.067 210.861 111.182 210.861Z" fill="#F5F5F5"/>
<path d="M120.427 142.231H107.08V145.844H120.427V142.231Z" fill="#EBEBEB"/>
<path d="M120.427 141.295H80.808V142.231H120.427V141.295Z" fill="#E0E0E0"/>
<path d="M127.441 145.838H60.8682V163.774H127.441V145.838Z" fill="#F0F0F0"/>
<path d="M122.344 144.929H65.9717V145.844H122.344V144.929Z" fill="#E0E0E0"/>
<path d="M78.804 145.838H60.8682V163.774H78.804V145.838Z" fill="#E0E0E0"/>
<path d="M82.5982 144.929L83.1593 142.231H82.0438L82.5982 144.929Z" fill="#E0E0E0"/>
<path d="M279.685 51.5896H192.892V241.93H279.685V51.5896Z" fill="#E6E6E6"/>
<path d="M283.74 51.5896H193.987V241.93H283.74V51.5896Z" fill="#F5F5F5"/>
<path d="M275.944 234.134V59.3785L201.769 59.3785V234.134H275.944Z" fill="white"/>
<path d="M264.021 97.7426C267.522 83.8441 259.094 69.7387 245.195 66.2373C231.297 62.7359 217.191 71.1645 213.69 85.063C210.189 98.9615 218.617 113.067 232.516 116.568C246.414 120.07 260.52 111.641 264.021 97.7426Z" fill="#F0F0F0"/>
<path d="M238.863 116.145C252.528 116.145 263.606 105.067 263.606 91.4024C263.606 77.7374 252.528 66.6597 238.863 66.6597C225.198 66.6597 214.121 77.7374 214.121 91.4024C214.121 105.067 225.198 116.145 238.863 116.145Z" fill="#E0E0E0"/>
<path d="M238.863 98.5834C242.829 98.5834 246.044 95.3684 246.044 91.4024C246.044 87.4365 242.829 84.2214 238.863 84.2214C234.897 84.2214 231.682 87.4365 231.682 91.4024C231.682 95.3684 234.897 98.5834 238.863 98.5834Z" fill="white"/>
<path d="M236.024 119.906H220.587V135.343H236.024V119.906Z" fill="#F5F5F5"/>
<path d="M257.14 119.906H241.702V135.343H257.14V119.906Z" fill="#E6E6E6"/>
<path d="M264.094 185.91C267.443 171.974 258.86 157.962 244.923 154.614C230.987 151.266 216.975 159.849 213.627 173.785C210.279 187.721 218.862 201.733 232.798 205.081C246.734 208.43 260.746 199.847 264.094 185.91Z" fill="#F0F0F0"/>
<path d="M263.292 183.884C265.507 170.399 256.372 157.672 242.888 155.457C229.403 153.241 216.676 162.377 214.461 175.861C212.246 189.345 221.381 202.072 234.865 204.288C248.349 206.503 261.076 197.368 263.292 183.884Z" fill="#E6E6E6"/>
<path d="M238.863 187.033C242.829 187.033 246.044 183.818 246.044 179.852C246.044 175.886 242.829 172.671 238.863 172.671C234.897 172.671 231.682 175.886 231.682 179.852C231.682 183.818 234.897 187.033 238.863 187.033Z" fill="white"/>
<path d="M241.709 223.793H257.147V208.356H241.709V223.793Z" fill="#F5F5F5"/>
<path d="M220.587 223.793H236.024V208.356H220.587V223.793Z" fill="#E6E6E6"/>
<path d="M167 285.61C238.531 285.61 296.519 282.225 296.519 278.048C296.519 273.872 238.531 270.487 167 270.487C95.4689 270.487 37.4815 273.872 37.4815 278.048C37.4815 282.225 95.4689 285.61 167 285.61Z" fill="#F5F5F5"/>
<g opacity="0.4">
<path opacity="0.4" d="M95.6109 116.606C82.3011 116.688 69.2192 113.153 57.762 106.379C57.7025 106.343 57.6594 106.285 57.6419 106.218C57.6245 106.15 57.634 106.079 57.6684 106.018C57.6857 105.988 57.7088 105.962 57.7364 105.941C57.764 105.92 57.7955 105.904 57.8291 105.896C57.8627 105.887 57.8977 105.885 57.9321 105.89C57.9664 105.895 57.9994 105.907 58.0292 105.925C94.4619 127.181 131.549 110.875 167.428 95.1098C202.097 79.8728 237.955 64.128 273.272 82.164C273.303 82.1793 273.33 82.2006 273.353 82.2265C273.375 82.2525 273.392 82.2826 273.403 82.3151C273.414 82.3477 273.418 82.3821 273.416 82.4163C273.414 82.4506 273.404 82.484 273.389 82.5147C273.374 82.5454 273.352 82.5728 273.327 82.5953C273.301 82.6178 273.27 82.6349 273.238 82.6458C273.172 82.6677 273.1 82.6626 273.038 82.6316C237.935 64.7292 202.23 80.4406 167.635 95.6242C143.987 105.985 119.812 116.606 95.6109 116.606Z" fill="#263238"/>
<path opacity="0.4" d="M95.6109 127.054C82.6987 127.134 69.9944 123.802 58.784 117.394C58.7238 117.361 58.6795 117.304 58.6607 117.238C58.6419 117.172 58.6502 117.101 58.6838 117.04C58.7188 116.98 58.7762 116.935 58.8437 116.916C58.9112 116.898 58.9833 116.906 59.0445 116.94C95.1165 137.327 131.857 121.175 167.441 105.551C202.444 90.1867 238.643 74.2615 274.321 93.0925C274.373 93.1303 274.409 93.1856 274.424 93.2482C274.438 93.3108 274.43 93.3765 274.4 93.4333C274.37 93.4901 274.32 93.5341 274.26 93.5574C274.201 93.5807 274.134 93.5817 274.074 93.5601C238.67 74.8561 202.598 90.701 167.675 106.032C143.987 116.426 119.806 127.054 95.6109 127.054Z" fill="#263238"/>
<path opacity="0.4" d="M95.6042 137.494C83.0791 137.574 70.7427 134.441 59.7727 128.396C59.712 128.361 59.6676 128.304 59.6488 128.236C59.6301 128.169 59.6386 128.097 59.6725 128.036C59.6885 128.005 59.7105 127.978 59.7373 127.957C59.764 127.935 59.7949 127.919 59.828 127.909C59.8611 127.9 59.8958 127.898 59.9299 127.902C59.964 127.906 59.9969 127.918 60.0265 127.935C95.7912 147.474 132.204 131.469 167.421 115.992C202.758 100.467 239.298 84.4085 275.283 104.074C275.343 104.108 275.388 104.164 275.407 104.23C275.427 104.296 275.421 104.367 275.39 104.428C275.374 104.459 275.352 104.486 275.325 104.507C275.298 104.529 275.268 104.546 275.235 104.556C275.202 104.566 275.167 104.569 275.133 104.565C275.099 104.562 275.066 104.552 275.036 104.535C239.271 84.9963 202.852 100.995 167.635 116.472C143.987 126.867 119.799 137.494 95.6042 137.494Z" fill="#263238"/>
<path opacity="0.4" d="M95.5975 147.935C83.4643 148.013 71.5021 145.073 60.788 139.378C60.7263 139.344 60.6801 139.288 60.659 139.221C60.6378 139.153 60.6434 139.081 60.6744 139.017C60.7083 138.956 60.7652 138.91 60.8328 138.89C60.9004 138.87 60.9731 138.877 61.0352 138.911C96.4392 157.615 132.545 141.77 167.434 126.432C203.092 110.761 239.972 94.5554 276.318 115.076C276.378 115.11 276.423 115.166 276.441 115.233C276.46 115.299 276.452 115.37 276.418 115.43C276.383 115.491 276.326 115.535 276.259 115.554C276.191 115.573 276.119 115.564 276.058 115.531C239.986 95.1432 203.206 111.295 167.661 126.887C143.994 137.307 119.799 147.935 95.5975 147.935Z" fill="#263238"/>
<path opacity="0.4" d="M95.5975 158.383C83.8458 158.466 72.247 155.717 61.7833 150.367C61.7221 150.334 61.6761 150.279 61.6549 150.213C61.6337 150.147 61.639 150.075 61.6698 150.013C61.6853 149.982 61.7069 149.954 61.7332 149.932C61.7595 149.909 61.79 149.892 61.8229 149.882C61.8559 149.871 61.8906 149.867 61.9251 149.87C61.9596 149.873 61.9932 149.883 62.0238 149.899C97.1205 167.795 132.832 152.09 167.428 136.9C203.419 121.088 240.634 104.729 277.293 126.118C277.324 126.136 277.35 126.159 277.371 126.186C277.392 126.214 277.407 126.245 277.416 126.279C277.425 126.313 277.427 126.348 277.422 126.382C277.417 126.416 277.405 126.449 277.387 126.479C277.37 126.509 277.348 126.535 277.321 126.556C277.294 126.577 277.263 126.593 277.23 126.601C277.197 126.61 277.162 126.612 277.128 126.607C277.095 126.602 277.062 126.59 277.033 126.573C240.6 105.29 203.506 121.576 167.668 137.354C143.994 147.748 119.792 158.383 95.5975 158.383Z" fill="#263238"/>
</g>
<path d="M85.3437 134.936C85.0993 133.966 84.5165 133.116 83.7004 132.538C83.2311 132.207 82.8392 131.778 82.552 131.281C82.2648 130.784 82.0891 130.231 82.0371 129.659L82.1774 129.271C82.2013 129.206 82.1982 129.133 82.1687 129.07C82.1393 129.007 82.0859 128.958 82.0204 128.934C81.9548 128.91 81.8825 128.913 81.8192 128.943C81.7559 128.972 81.707 129.025 81.683 129.091L76.299 144.288C76.1303 143.915 75.8871 143.581 75.5842 143.306C74.8297 142.639 73.9046 142.195 72.9122 142.023C70.6878 141.589 68.6504 142.418 68.3698 143.867C68.1226 145.116 69.2582 146.426 70.995 147.047C71.2848 147.149 71.5818 147.229 71.8835 147.287C72.8638 147.5 73.8838 147.435 74.8294 147.1C75.2088 146.987 75.5532 146.78 75.8302 146.497C76.1072 146.214 76.3076 145.865 76.4125 145.484L80.1934 134.856C80.4266 135.852 81.0157 136.729 81.85 137.321C82.3445 137.67 82.7534 138.127 83.0461 138.657C83.3388 139.186 83.5077 139.776 83.5401 140.38C83.5449 140.416 83.5592 140.45 83.5816 140.478C83.6039 140.506 83.6334 140.528 83.667 140.541H83.7138C83.7577 140.547 83.8028 140.539 83.8407 140.515C83.8787 140.492 83.9071 140.456 83.9208 140.414L85.2568 136.659C85.4639 136.108 85.4943 135.506 85.3437 134.936Z" fill="#263238"/>
<path d="M234.668 105.591C233.897 104.943 232.917 104.597 231.91 104.615C231.335 104.625 230.764 104.51 230.238 104.28C229.711 104.049 229.24 103.708 228.857 103.279L228.737 102.879C228.716 102.812 228.671 102.755 228.61 102.722C228.548 102.688 228.477 102.68 228.409 102.698C228.342 102.718 228.286 102.764 228.252 102.825C228.219 102.886 228.21 102.958 228.229 103.026L232.831 118.557C232.474 118.352 232.078 118.222 231.669 118.176C230.665 118.078 229.654 118.264 228.75 118.71C226.686 119.672 225.517 121.549 226.145 122.899C226.686 124.061 228.389 124.455 230.153 123.927C230.447 123.839 230.735 123.729 231.014 123.6C231.938 123.193 232.729 122.536 233.299 121.703C233.541 121.386 233.699 121.012 233.757 120.617C233.816 120.222 233.773 119.819 233.633 119.445L230.407 108.563C231.188 109.235 232.188 109.599 233.219 109.585C233.827 109.579 234.428 109.71 234.979 109.968C235.529 110.225 236.014 110.604 236.399 111.075C236.424 111.101 236.456 111.119 236.492 111.129C236.527 111.138 236.564 111.138 236.599 111.128H236.646C236.684 111.106 236.714 111.072 236.731 111.031C236.748 110.99 236.751 110.944 236.739 110.901L235.597 107.06C235.452 106.484 235.126 105.969 234.668 105.591Z" fill="#263238"/>
<path d="M131.229 132.03C131.942 132.32 132.582 132.766 133.099 133.336C133.617 133.906 134.001 134.585 134.221 135.323C134.236 135.368 134.263 135.407 134.3 135.435C134.337 135.464 134.382 135.481 134.428 135.484C134.448 135.49 134.469 135.49 134.488 135.484C134.544 135.477 134.597 135.451 134.636 135.411C134.676 135.371 134.702 135.319 134.709 135.263L135.063 132.024C135.146 131.29 135.004 130.549 134.655 129.899C134.067 128.768 133.093 127.884 131.91 127.408C131.231 127.134 130.62 126.716 130.119 126.183C129.617 125.65 129.237 125.015 129.004 124.321L129.058 123.794C129.067 123.706 129.041 123.618 128.986 123.55C128.931 123.481 128.851 123.436 128.764 123.426C128.72 123.422 128.675 123.426 128.633 123.439C128.591 123.451 128.551 123.472 128.517 123.5C128.483 123.528 128.455 123.562 128.434 123.601C128.413 123.64 128.4 123.683 128.396 123.727L126.172 144.121C125.855 143.711 125.457 143.37 125.003 143.119C123.875 142.511 122.601 142.228 121.322 142.304C120.044 142.334 118.798 142.715 117.722 143.406C117.245 143.63 116.845 143.989 116.572 144.438C116.299 144.888 116.164 145.409 116.186 145.934C116.207 146.46 116.383 146.968 116.692 147.394C117.001 147.82 117.429 148.146 117.922 148.329C118.688 148.755 119.534 149.017 120.407 149.098C120.801 149.145 121.199 149.158 121.596 149.138C124.455 149.024 126.72 147.428 126.686 145.564L127.635 136.84C128.223 138.005 129.212 138.918 130.42 139.412C131.516 139.946 132.545 140.46 133.413 142.705C133.432 142.747 133.462 142.784 133.5 142.812C133.537 142.84 133.581 142.858 133.627 142.865H133.687C133.744 142.859 133.796 142.833 133.836 142.791C133.875 142.749 133.898 142.695 133.901 142.638L134.255 139.405C134.345 138.669 134.203 137.924 133.847 137.274C133.259 136.142 132.285 135.259 131.102 134.782C130.422 134.51 129.811 134.092 129.309 133.559C128.807 133.026 128.427 132.391 128.196 131.696L128.443 129.458C129.026 130.627 130.017 131.542 131.229 132.03Z" fill="#263238"/>
<path d="M112.565 122.551L113.119 110.975L113.326 106.66V106.412L101.536 105.851V106.092L101.329 110.414L100.828 121.002C100.354 120.551 99.783 120.215 99.1584 120.022C98.5338 119.828 97.8729 119.782 97.2274 119.886C95.1433 120.1 93.5601 121.382 93.6937 122.745C93.8139 123.914 95.17 124.749 96.8801 124.856C97.1624 124.879 97.4461 124.879 97.7284 124.856C99.7992 124.649 101.369 123.393 101.262 122.044L101.736 112.097L112.565 112.611L112.144 121.556C111.894 121.275 111.589 121.048 111.249 120.888C110.404 120.498 109.467 120.35 108.543 120.46C106.459 120.674 104.876 121.95 105.01 123.313C105.13 124.488 106.486 125.317 108.196 125.43C108.478 125.454 108.762 125.454 109.044 125.43C111.095 125.163 112.672 123.901 112.565 122.551ZM101.75 111.589L101.803 110.434L112.631 110.955L112.578 112.104L101.75 111.589Z" fill="#263238"/>
<path d="M270.42 100.28L271.555 90.995L271.976 87.5347V87.341L262.524 86.172V86.3724L262.096 89.8326L261.054 98.3296C260.7 97.938 260.26 97.634 259.769 97.4415C259.277 97.2491 258.748 97.1735 258.222 97.2207C256.532 97.2608 255.183 98.2027 255.209 99.3049C255.209 100.253 256.278 101.028 257.648 101.195C257.87 101.212 258.093 101.212 258.316 101.195C259.992 101.149 261.335 100.227 261.328 99.1379L262.304 91.162L270.988 92.2241L270.112 99.3984C269.934 99.1533 269.707 98.9485 269.444 98.7972C268.79 98.4333 268.048 98.2597 267.3 98.2962C265.603 98.3429 264.254 99.2782 264.281 100.38C264.281 101.329 265.35 102.104 266.719 102.271C266.941 102.287 267.165 102.287 267.387 102.271C269.084 102.291 270.42 101.369 270.42 100.28ZM262.37 90.8079L262.477 89.8861L271.161 90.9482L271.054 91.87L262.37 90.8079Z" fill="#263238"/>
<path d="M235.664 78.9242L230.019 67.3277L227.915 62.9991L227.788 62.792L215.971 68.5435L216.085 68.784L218.196 73.1126L223.352 83.7204C222.264 83.2996 220.68 83.5802 219.251 84.5554C217.32 85.8914 216.459 87.9689 217.32 89.2314C218.062 90.3136 219.845 90.4272 221.556 89.5988C221.842 89.4616 222.117 89.3007 222.377 89.1179C224.281 87.8153 225.143 85.7779 224.321 84.482L218.676 72.8855L229.531 67.6016L234.695 78.156C233.606 77.7352 232.023 78.0157 230.587 78.991C229.72 79.5605 229.026 80.3578 228.583 81.2956C228.363 81.6554 228.253 82.0711 228.264 82.4925C228.275 82.9138 228.408 83.3229 228.647 83.6704C228.886 84.0178 229.22 84.2888 229.609 84.4506C229.998 84.6123 230.426 84.658 230.841 84.5822C231.539 84.5387 232.221 84.3523 232.845 84.0344C233.135 83.8947 233.414 83.734 233.68 83.5534C235.624 82.2575 236.472 80.16 235.664 78.9242Z" fill="#263238"/>
<path d="M196.746 137.561C196.192 137.561 195.604 137.561 194.996 137.494C190.948 137.174 187.387 135.096 184.401 131.329C175.43 119.973 174.348 97.047 175.23 91.3156L175.59 91.369C174.715 97.0671 175.784 119.853 184.689 131.102C187.608 134.789 191.081 136.813 195.023 137.114C201.135 137.601 205.564 135.531 207.828 131.135C211.402 124.195 208.676 112.491 201.475 103.914C199.164 101.162 198.383 98.1826 199.331 95.7444C199.671 94.8531 200.247 94.0712 200.998 93.4827C201.749 92.8942 202.646 92.5215 203.593 92.4044C206.185 92.0571 208.877 93.4866 210.941 96.3189L210.647 96.5327C208.643 93.8139 206.085 92.4378 203.62 92.7652C202.738 92.8732 201.903 93.2196 201.204 93.7669C200.505 94.3142 199.968 95.0418 199.652 95.8714C198.75 98.1893 199.512 101.035 201.736 103.68C209.144 112.505 211.829 124.121 208.129 131.302C206.646 134.268 203.459 137.561 196.746 137.561Z" fill="#EA3C71"/>
<path d="M161.322 68.2429C156.646 70.4606 150.387 72.0705 152.371 80.474C154.355 88.8774 149.071 91.3624 153.039 94.6422C157.007 97.9221 170.868 97.6215 176.198 95.5574C182.21 93.2261 189.164 85.3504 182.384 81.3223C177.093 78.1827 174.796 74.1213 174.027 71.6497C172.458 66.6063 167.053 63.7539 161.322 68.2429Z" fill="#263238"/>
<path d="M187.474 80.995C182.324 79.9462 177.16 78.0358 174.315 71.2422C173.172 68.5168 171.362 66.8 169.204 66.4126C166.766 65.9784 164.034 67.2142 161.529 69.8995L161.262 69.6457C163.854 66.8735 166.693 65.5909 169.278 66.0585C171.562 66.466 173.473 68.2562 174.662 71.1019C177.441 77.7352 182.504 79.6056 187.561 80.6343L187.474 80.995Z" fill="#263238"/>
<path d="M185.517 106.032L185.764 106.292L186.091 106.626C186.325 106.847 186.552 107.08 186.806 107.294C187.294 107.748 187.822 108.183 188.356 108.63C189.425 109.504 190.54 110.32 191.696 111.075C192.872 111.843 194.101 112.545 195.337 113.233C196.005 113.553 196.592 113.901 197.24 114.208L198.737 114.923C198.952 115.004 199.189 115.004 199.405 114.923C199.861 114.756 200.287 114.517 200.667 114.215C201.687 113.402 202.604 112.469 203.399 111.436C205.162 109.154 206.749 106.742 208.149 104.221L210.948 105.364C210.033 108.402 208.752 111.318 207.133 114.048C206.261 115.521 205.194 116.869 203.96 118.056C203.216 118.762 202.364 119.343 201.435 119.779C200.262 120.332 198.946 120.509 197.668 120.287C197.336 120.227 197.01 120.14 196.693 120.026L196.078 119.799L194.969 119.372C194.221 119.091 193.5 118.75 192.771 118.436C191.313 117.767 189.893 117.017 188.516 116.192C187.128 115.355 185.79 114.438 184.508 113.446C183.84 112.932 183.239 112.404 182.625 111.83C182.317 111.549 182.01 111.249 181.709 110.941L181.262 110.46C181.101 110.28 180.981 110.147 180.754 109.873L185.517 106.032Z" fill="#FFB573"/>
<path d="M180.627 100.447C183.099 99.846 189.378 107.969 189.378 107.969L185.564 115.23C185.564 115.23 175.016 109.278 175.417 105.998C175.831 102.585 177.02 101.329 180.627 100.447Z" fill="#EA3C71"/>
<path opacity="0.2" d="M180.627 100.447C183.099 99.846 189.378 107.969 189.378 107.969L185.564 115.23C185.564 115.23 175.016 109.278 175.417 105.998C175.831 102.585 177.02 101.329 180.627 100.447Z" fill="white"/>
<path opacity="0.2" d="M182.257 103.259L181.656 112.765C183.753 114.201 185.564 115.23 185.564 115.23L186.359 113.707L182.257 103.259Z" fill="black"/>
<path d="M207.614 105.771L209.912 99.3917L213.179 104.509C213.179 104.509 211.349 107.849 208.864 107.849L207.614 105.771Z" fill="#FFB573"/>
<path d="M213.232 96.4392L216.592 100.267L213.179 104.502L209.912 99.3917L213.232 96.4392Z" fill="#FFB573"/>
<path d="M175.156 268.863L181.108 269.097L182.17 255.27L176.218 255.036L175.156 268.863Z" fill="#FFB573"/>
<path d="M117.181 187.02L116.005 192.872L129.191 197.474L130.36 191.616L117.181 187.02Z" fill="#FFB573"/>
<path d="M117.02 193.72L119.291 187.407C119.334 187.3 119.335 187.18 119.295 187.071C119.254 186.962 119.174 186.873 119.071 186.82L114.342 184.301C114.22 184.239 114.086 184.204 113.95 184.198C113.813 184.193 113.677 184.216 113.55 184.267C113.424 184.319 113.31 184.397 113.216 184.496C113.122 184.595 113.05 184.713 113.006 184.842C112.244 187.053 111.99 188.182 111.002 190.934C110.38 192.645 108.871 195.818 108.022 198.169C107.174 200.52 109.458 201.509 110.026 200.594C112.565 196.532 114.555 195.564 116.332 194.535C116.647 194.349 116.89 194.062 117.02 193.72Z" fill="#263238"/>
<path d="M181.309 268.743L174.849 266.933C174.738 266.899 174.619 266.908 174.514 266.957C174.409 267.006 174.326 267.093 174.281 267.2L172.11 272.103C172.062 272.231 172.041 272.367 172.049 272.504C172.057 272.64 172.094 272.773 172.157 272.894C172.22 273.015 172.308 273.122 172.415 273.206C172.522 273.291 172.646 273.352 172.778 273.386C175.036 273.974 176.158 274.147 179.004 274.942C180.747 275.43 185.858 277.734 188.356 277.935C190.854 278.135 191.182 275.67 190.16 275.363C186.865 274.39 184.035 272.254 182.197 269.351C181.983 269.049 181.668 268.833 181.309 268.743Z" fill="#263238"/>
<g opacity="0.2">
<path opacity="0.2" d="M182.17 255.27L181.623 262.397L175.671 262.17L176.212 255.042L182.17 255.27Z" fill="black"/>
<path opacity="0.2" d="M130.36 191.616L129.185 197.474L122.391 195.096L123.567 189.244L130.36 191.616Z" fill="black"/>
</g>
<path d="M183.747 102.932C184.321 106.312 184.876 114.836 182.411 134.689L158.209 136.185C158.022 126.907 157.541 119.425 152.511 101.449C152.385 101.007 152.361 100.541 152.438 100.088C152.516 99.6343 152.695 99.204 152.96 98.8285C153.226 98.453 153.573 98.1419 153.975 97.918C154.377 97.6941 154.824 97.5631 155.283 97.5347C157.127 97.4278 159.445 97.3543 161.81 97.4545C165.54 97.536 169.261 97.8753 172.945 98.4699C176.085 99.031 179.525 99.8994 181.522 100.44C182.093 100.599 182.606 100.918 183.001 101.359C183.395 101.801 183.654 102.347 183.747 102.932Z" fill="#EA3C71"/>
<path opacity="0.2" d="M183.747 102.932C184.321 106.312 184.876 114.836 182.411 134.689L158.209 136.185C158.022 126.907 157.541 119.425 152.511 101.449C152.385 101.007 152.361 100.541 152.438 100.088C152.516 99.6343 152.695 99.204 152.96 98.8285C153.226 98.453 153.573 98.1419 153.975 97.918C154.377 97.6941 154.824 97.5631 155.283 97.5347C157.127 97.4278 159.445 97.3543 161.81 97.4545C165.54 97.536 169.261 97.8753 172.945 98.4699C176.085 99.031 179.525 99.8994 181.522 100.44C182.093 100.599 182.606 100.918 183.001 101.359C183.395 101.801 183.654 102.347 183.747 102.932Z" fill="white"/>
<path d="M182.364 134.689C182.364 134.689 189.906 180.313 190.634 198.51C191.395 217.441 182.885 260.487 182.885 260.487H174.836C174.836 260.487 177.782 219.391 175.924 200.868C173.92 180.674 164.669 135.784 164.669 135.784L182.364 134.689Z" fill="#EA3C71"/>
<path d="M174.134 260.781H183.613L184.308 257.754L173.693 257.387L174.134 260.781Z" fill="#263238"/>
<path opacity="0.2" d="M172.658 146.76C179.338 158.349 175.938 180.46 174.335 188.71C172.504 176.586 169.766 161.796 167.655 150.941C168.196 144.695 169.578 141.416 172.658 146.76Z" fill="black"/>
<path d="M176.005 135.09C176.005 135.09 175.831 183.186 168.47 197.294C159.725 213.994 123.46 196.786 123.46 196.786L125.063 188.77C125.063 188.77 149.111 194.188 155.397 189.705C162.157 168.757 149.732 150.961 158.189 136.158L176.005 135.09Z" fill="#EA3C71"/>
<path d="M125.197 187.848L123.213 197.748L126.112 199.431L128.971 187.882L125.197 187.848Z" fill="#263238"/>
<path d="M158.216 105.591C157.127 108.563 156.031 111.603 154.989 114.635C153.947 117.668 152.985 120.708 152.137 123.74L151.983 124.308L151.91 124.595C151.91 124.689 151.85 124.816 151.863 124.742V124.428C151.866 124.373 151.866 124.317 151.863 124.261C151.85 124.157 151.827 124.054 151.796 123.954C151.78 123.901 151.76 123.85 151.736 123.8C151.709 123.724 151.676 123.651 151.636 123.58C151.555 123.422 151.457 123.274 151.342 123.139C151.212 122.973 151.056 122.829 150.881 122.712C150.729 122.6 150.562 122.508 150.387 122.438C150.248 122.385 150.105 122.342 149.959 122.311C149.852 122.282 149.742 122.259 149.632 122.244C149.458 122.238 149.285 122.258 149.118 122.304C148.997 122.351 149.078 122.338 149.171 122.304C149.292 122.254 149.41 122.199 149.525 122.137C149.792 121.99 150.093 121.81 150.394 121.609C151.616 120.801 152.899 119.833 154.148 118.857C156.659 116.893 159.184 114.849 161.716 112.812L163.86 114.943C161.786 117.525 159.576 119.996 157.241 122.344C156.041 123.565 154.777 124.72 153.453 125.804C153.099 126.085 152.732 126.366 152.311 126.653C152.09 126.793 151.87 126.94 151.596 127.087C151.258 127.279 150.9 127.432 150.527 127.541C150.163 127.646 149.784 127.694 149.405 127.682C149.241 127.677 149.078 127.66 148.917 127.628C148.72 127.595 148.527 127.539 148.343 127.461C148.121 127.37 147.91 127.254 147.715 127.114C147.502 126.963 147.309 126.786 147.14 126.586C146.995 126.409 146.87 126.216 146.766 126.012C146.72 125.918 146.666 125.798 146.639 125.724L146.559 125.497C146.517 125.348 146.484 125.196 146.459 125.043C146.452 124.936 146.452 124.829 146.459 124.722C146.445 124.547 146.445 124.37 146.459 124.195V123.967V123.8C146.499 123.527 146.519 123.46 146.539 123.353L146.599 123.046L146.726 122.424C147.394 119.084 148.283 115.911 149.265 112.745C150.247 109.579 151.302 106.479 152.544 103.36L158.216 105.591Z" fill="#FFB573"/>
<path d="M153.339 97.8486C150.961 98.7371 148.563 107.267 148.563 107.267L158.389 113.413C158.389 113.413 161.516 105.183 160.3 102.11C159.037 98.9108 156.058 96.86 153.339 97.8486Z" fill="#EA3C71"/>
<path opacity="0.2" d="M153.339 97.8486C150.961 98.7371 148.563 107.267 148.563 107.267L158.389 113.413C158.389 113.413 161.516 105.183 160.3 102.11C159.037 98.9108 156.058 96.86 153.339 97.8486Z" fill="white"/>
<path d="M115.223 196.392C115.223 196.392 115.223 196.439 115.223 196.465C115.279 196.591 115.366 196.701 115.476 196.784C115.586 196.867 115.715 196.921 115.851 196.94C115.934 196.961 116.021 196.96 116.103 196.936C116.185 196.913 116.26 196.868 116.319 196.806C116.853 196.265 116.366 194.134 116.319 193.92C116.313 193.893 116.3 193.868 116.279 193.849C116.259 193.83 116.233 193.817 116.205 193.814C116.179 193.81 116.151 193.813 116.127 193.824C116.102 193.835 116.081 193.852 116.065 193.874C115.658 194.542 115.003 195.724 115.223 196.392ZM116.132 194.321C116.305 195.17 116.426 196.325 116.132 196.612C116.104 196.639 116.069 196.657 116.031 196.665C115.994 196.673 115.955 196.671 115.918 196.659C115.828 196.648 115.742 196.613 115.668 196.56C115.595 196.506 115.536 196.434 115.497 196.352C115.357 195.998 115.564 195.25 116.132 194.341V194.321Z" fill="#EA3C71"/>
<path d="M116.112 194.214C116.332 194.922 117.08 196.111 117.688 196.218C117.8 196.234 117.913 196.211 118.01 196.154C118.107 196.097 118.182 196.009 118.223 195.904C118.269 195.806 118.293 195.699 118.293 195.59C118.293 195.482 118.269 195.375 118.223 195.276C117.902 194.468 116.285 193.88 116.219 193.854C116.198 193.841 116.173 193.834 116.149 193.834C116.124 193.834 116.099 193.841 116.078 193.854C116.061 193.871 116.048 193.892 116.039 193.915C116.031 193.938 116.029 193.963 116.032 193.987C116.054 194.064 116.081 194.14 116.112 194.214ZM118.002 195.41C118.022 195.468 118.029 195.53 118.023 195.591C118.017 195.652 117.999 195.711 117.969 195.764C117.889 195.924 117.802 195.931 117.735 195.924C117.321 195.864 116.639 194.896 116.399 194.208C116.927 194.435 117.788 194.876 117.982 195.37C117.985 195.385 117.992 195.399 118.002 195.41Z" fill="#EA3C71"/>
<path d="M183.186 270.353C183.665 270.536 184.193 270.55 184.682 270.393C184.796 270.336 184.895 270.252 184.969 270.148C185.043 270.045 185.092 269.925 185.109 269.799C185.127 269.722 185.124 269.643 185.102 269.568C185.08 269.493 185.039 269.425 184.983 269.371C184.388 268.783 181.763 269.311 181.469 269.371C181.44 269.378 181.415 269.393 181.395 269.415C181.374 269.436 181.361 269.462 181.355 269.491C181.353 269.52 181.359 269.549 181.373 269.574C181.388 269.599 181.409 269.619 181.435 269.632C181.996 269.925 182.581 270.167 183.186 270.353ZM184.522 269.451C184.611 269.469 184.694 269.51 184.762 269.571C184.786 269.593 184.803 269.62 184.812 269.651C184.822 269.682 184.823 269.714 184.816 269.745C184.803 269.828 184.771 269.907 184.722 269.976C184.674 270.044 184.609 270.1 184.535 270.139C184.101 270.353 183.139 270.139 181.923 269.571C182.783 269.383 183.668 269.342 184.542 269.451H184.522Z" fill="#EA3C71"/>
<path d="M181.462 269.652H181.516C182.291 269.538 183.994 268.676 184.067 267.995C184.067 267.835 184.034 267.614 183.667 267.467C183.537 267.41 183.397 267.38 183.256 267.38C183.114 267.38 182.974 267.41 182.845 267.467C181.957 267.861 181.389 269.378 181.362 269.438C181.351 269.46 181.345 269.484 181.345 269.508C181.345 269.532 181.351 269.556 181.362 269.578C181.372 269.597 181.386 269.614 181.404 269.627C181.421 269.639 181.441 269.648 181.462 269.652ZM183.466 267.701H183.553C183.794 267.801 183.78 267.901 183.773 267.935C183.733 268.349 182.538 269.064 181.723 269.271C181.955 268.63 182.386 268.08 182.952 267.701C183.122 267.635 183.31 267.635 183.48 267.701H183.466Z" fill="#EA3C71"/>
<path d="M157.742 134.789L157.254 136.993C157.18 137.167 157.387 137.327 157.668 137.307L182.578 135.771C182.798 135.771 182.972 135.637 182.979 135.504L183.065 133.319C183.065 133.172 182.872 133.052 182.631 133.072L158.122 134.582C158.046 134.58 157.971 134.598 157.904 134.635C157.837 134.671 157.781 134.724 157.742 134.789Z" fill="white"/>
<path d="M161.202 137.327L160.534 137.368C160.407 137.368 160.3 137.314 160.307 137.234L160.44 134.395C160.44 134.315 160.554 134.241 160.687 134.235L161.355 134.188C161.482 134.188 161.589 134.241 161.583 134.328L161.449 137.16C161.442 137.241 161.329 137.321 161.202 137.327Z" fill="#EA3C71"/>
<path d="M180.747 136.118L180.079 136.158C179.953 136.158 179.846 136.105 179.852 136.025L179.986 133.193C179.986 133.106 180.099 133.032 180.226 133.026L180.894 132.985C181.021 132.985 181.128 133.039 181.122 133.119L180.988 135.951C180.988 136.038 180.881 136.112 180.747 136.118Z" fill="#EA3C71"/>
<path d="M171.008 136.72L170.34 136.766C170.206 136.766 170.106 136.713 170.106 136.626L170.24 133.794C170.24 133.707 170.353 133.633 170.487 133.627L171.155 133.587C171.289 133.587 171.389 133.64 171.389 133.72L171.255 136.559C171.215 136.639 171.108 136.713 171.008 136.72Z" fill="#EA3C71"/>
<path d="M161.79 97.528C165.52 97.6074 169.241 97.9444 172.925 98.5367C174.261 98.7705 175.664 99.0711 176.98 99.3717C177.681 101.543 178.169 105.978 176.212 109.639C175.938 108.936 175.524 108.296 174.994 107.758C174.465 107.221 173.831 106.797 173.132 106.513C172.038 107.532 171.204 108.799 170.701 110.207C168.102 109.739 161.108 103.667 157.915 98.7772L157.087 97.5146C158.536 97.4278 160.153 97.4211 161.79 97.528Z" fill="white"/>
<path d="M162.13 85.2568C163.052 88.844 164.134 95.3637 161.79 97.4879C161.79 97.4879 162.992 101.155 169.645 101.756C176.993 102.424 172.925 98.5033 172.925 98.5033C168.87 97.1673 168.797 94.2949 169.325 91.6162L162.13 85.2568Z" fill="#FFB573"/>
<path d="M161.796 97.528C165.525 97.6007 169.244 97.9378 172.925 98.5367L173.653 98.6703C174.649 100.407 174.949 102.378 173.045 105.918C173.045 105.918 163.126 101.77 160.353 97.4879L161.796 97.528Z" fill="#FFB573"/>
<path opacity="0.2" d="M165.063 87.8554L169.318 91.6162C169.185 92.2448 169.112 92.8844 169.098 93.5267C167.554 93.1726 165.016 91.6429 164.756 90.0531C164.707 89.3072 164.811 88.5592 165.063 87.8554Z" fill="black"/>
<path d="M157.408 80.9282C159.525 86.4659 160.3 88.8574 164.088 90.8614C169.745 93.874 176.112 90.0664 175.664 84.0144C175.29 78.5635 171.896 70.4272 165.644 69.9062C164.27 69.7834 162.888 70.0141 161.629 70.5764C160.37 71.1387 159.275 72.0138 158.45 73.1185C157.624 74.2232 157.095 75.5208 156.913 76.8878C156.73 78.2548 156.901 79.6457 157.408 80.9282Z" fill="#FFB573"/>
<path d="M166.092 81.349L165.597 81.2956C165.723 80.6481 166.068 80.0635 166.572 79.639C166.685 79.522 166.827 79.4382 166.984 79.3968C167.14 79.3554 167.305 79.358 167.461 79.4042C167.616 79.4504 167.755 79.5386 167.864 79.659C167.972 79.7793 168.046 79.9273 168.075 80.0865L167.601 80.2402C167.587 80.1627 167.554 80.0899 167.505 80.0281C167.456 79.9664 167.393 79.9176 167.321 79.8861C167.241 79.874 167.16 79.8803 167.084 79.9046C167.007 79.929 166.937 79.9706 166.88 80.0264C166.481 80.3709 166.205 80.8348 166.092 81.349Z" fill="#263238"/>
<path d="M171.676 78.7572C171.648 78.6193 171.652 78.477 171.685 78.3405C171.719 78.2041 171.783 78.0767 171.872 77.9676C171.96 77.8585 172.072 77.7703 172.199 77.7093C172.325 77.6484 172.464 77.6161 172.605 77.6149C172.858 77.5939 173.112 77.6504 173.333 77.7768C173.553 77.9033 173.73 78.0937 173.84 78.323L173.406 78.5635C173.342 78.4183 173.234 78.2967 173.098 78.2154C172.961 78.134 172.803 78.097 172.645 78.1092C172.572 78.1113 172.5 78.1277 172.434 78.1575C172.367 78.1873 172.307 78.2299 172.257 78.2829C172.215 78.3422 172.185 78.4096 172.17 78.4809C172.155 78.5522 172.155 78.6258 172.17 78.6971L171.676 78.7572Z" fill="#263238"/>
<path d="M170.734 79.3116C171.471 80.2342 172.332 81.0503 173.293 81.7365C173.11 81.9767 172.877 82.1745 172.611 82.3163C172.345 82.4581 172.051 82.5406 171.749 82.5581L170.734 79.3116Z" fill="#ED893E"/>
<path d="M169.806 85.1433C170.032 85.1061 170.256 85.0502 170.474 84.9763C170.491 84.971 170.507 84.9623 170.521 84.9505C170.535 84.9388 170.546 84.9244 170.554 84.9081C170.563 84.8919 170.567 84.8741 170.568 84.856C170.569 84.8378 170.567 84.8197 170.56 84.8026C170.548 84.7682 170.524 84.7396 170.492 84.7224C170.46 84.7051 170.422 84.7003 170.387 84.7091C169.819 84.9033 169.214 84.9598 168.62 84.8738C168.027 84.7879 167.462 84.562 166.973 84.2148C166.944 84.1908 166.907 84.1795 166.869 84.1833C166.831 84.187 166.797 84.2056 166.773 84.2348C166.749 84.264 166.738 84.3016 166.741 84.3391C166.745 84.3767 166.764 84.4113 166.793 84.4352C167.223 84.747 167.711 84.9702 168.228 85.0917C168.745 85.2133 169.282 85.2308 169.806 85.1433Z" fill="#263238"/>
<path d="M157.274 85.9716C157.981 86.8744 159.016 87.4624 160.153 87.6082C161.663 87.7819 162.157 86.3791 161.563 85.0765C161.008 83.9075 159.558 82.4045 158.136 82.832C157.828 82.9307 157.55 83.1046 157.326 83.338C157.102 83.5714 156.94 83.8568 156.855 84.1685C156.769 84.4802 156.763 84.8083 156.836 85.1232C156.909 85.438 157.06 85.7296 157.274 85.9716Z" fill="#FFB573"/>
<path d="M167 69.8795C171.369 73.1059 165.858 73.5201 163.092 75.8915C160.42 78.1694 162.484 81.9035 157.955 83.3998C156.573 83.7312 155.155 83.895 153.734 83.8874C153.734 83.8874 155.831 79.7859 155.163 77.321C154.495 74.8561 161.997 66.132 167 69.8795Z" fill="#263238"/>
<path d="M166.252 69.4119C167.18 71.4159 169.492 71.0084 171.342 73.0525C172.478 74.3016 174.315 70.0866 171.389 68.6303C168.463 67.1741 164.796 66.2723 166.252 69.4119Z" fill="#263238"/>
<path d="M161.502 84.4018C162.124 86.7598 161.856 88.8774 159.498 89.4986C158.936 89.6456 158.351 89.6804 157.776 89.6011C157.201 89.5219 156.646 89.3301 156.145 89.0367C155.644 88.7433 155.206 88.354 154.855 87.8912C154.504 87.4283 154.248 86.9009 154.101 86.339C153.954 85.7771 153.919 85.1918 153.998 84.6165C154.078 84.0412 154.269 83.4871 154.563 82.9859C154.856 82.4847 155.246 82.0462 155.708 81.6954C156.171 81.3447 156.699 81.0885 157.261 80.9416C159.612 80.327 160.881 82.0371 161.502 84.4018Z" fill="#EA3C71"/>
<path d="M161.603 68.0291L158.71 69.4319C153.106 73.981 156.312 82.3176 156.312 82.3176L158.496 81.3223C158.496 81.3223 155.998 72.5715 161.603 68.0291Z" fill="#EA3C71"/>
<path d="M156.312 82.498H156.239C156.193 82.479 156.157 82.443 156.138 82.3978C156.105 82.311 152.952 73.8808 158.59 69.305L161.522 67.8755C161.563 67.8555 161.609 67.8512 161.652 67.8636C161.696 67.8759 161.733 67.904 161.756 67.9423C161.78 67.9798 161.79 68.0246 161.784 68.0687C161.778 68.1128 161.756 68.1532 161.723 68.1828C156.272 72.6049 158.65 81.1954 158.677 81.2822C158.686 81.3249 158.682 81.3695 158.664 81.4093C158.646 81.4491 158.615 81.4819 158.577 81.5027L156.385 82.498H156.312ZM160.587 68.7238L158.79 69.5989C153.84 73.6069 155.998 80.828 156.412 82.0705L158.283 81.2154C158.002 80.0999 156.479 73.0859 160.587 68.7238Z" fill="#EA3C71"/>
<path opacity="0.3" d="M158.984 85.0564C159.458 86.8801 159.391 88.4833 157.982 88.8507C156.573 89.2181 155.049 88.0357 154.569 86.2121C154.088 84.3884 154.842 82.6049 156.252 82.2041C157.661 81.8033 158.523 83.2328 158.984 85.0564Z" fill="white"/>
<path d="M163.707 79.4185C163.764 79.4042 163.815 79.3717 163.852 79.326C163.89 79.2802 163.911 79.2237 163.914 79.1647C163.994 77.8287 165.424 76.9603 165.437 76.9536C165.501 76.9146 165.546 76.8519 165.564 76.7792C165.581 76.7066 165.569 76.6299 165.53 76.5662C165.491 76.5024 165.429 76.4567 165.356 76.4392C165.283 76.4216 165.207 76.4337 165.143 76.4726C165.069 76.5127 163.453 77.5348 163.353 79.1446C163.35 79.1815 163.355 79.2185 163.366 79.2536C163.378 79.2887 163.396 79.3212 163.421 79.3491C163.445 79.377 163.474 79.3999 163.507 79.4164C163.54 79.4329 163.576 79.4427 163.613 79.4452L163.707 79.4185Z" fill="#263238"/>
<path d="M173.206 74.7292C173.255 74.7294 173.303 74.7165 173.345 74.6919C173.387 74.6672 173.422 74.6316 173.446 74.5889C173.465 74.5569 173.478 74.5215 173.483 74.4846C173.489 74.4478 173.487 74.4102 173.477 74.3742C173.468 74.3381 173.452 74.3042 173.429 74.2746C173.406 74.2449 173.378 74.2201 173.346 74.2014C172.961 73.969 172.526 73.8319 172.078 73.8017C171.629 73.7715 171.18 73.849 170.768 74.0278C170.7 74.0614 170.649 74.1204 170.625 74.1919C170.601 74.2633 170.607 74.3412 170.641 74.4085C170.674 74.4758 170.733 74.527 170.805 74.5508C170.876 74.5746 170.954 74.5691 171.021 74.5354C171.349 74.3968 171.705 74.339 172.06 74.3669C172.414 74.3948 172.757 74.5076 173.059 74.6958C173.105 74.7162 173.155 74.7276 173.206 74.7292Z" fill="#263238"/>
<path d="M160.988 114.094L160.026 107.715L165.196 110.888C165.196 110.888 165.016 114.722 162.778 115.784L160.988 114.094Z" fill="#FFB573"/>
<path d="M161.87 104.489L166.699 106.239L165.216 110.888L160.046 107.715L161.87 104.489Z" fill="#FFB573"/>
<path d="M211.394 95.9848L208.361 98.2646C208.193 98.3909 208.159 98.6296 208.286 98.7977L213.375 105.569C213.501 105.737 213.74 105.77 213.908 105.644L216.941 103.364C217.109 103.238 217.143 102.999 217.017 102.831L211.927 96.0604C211.801 95.8923 211.562 95.8585 211.394 95.9848Z" fill="#EA3C71"/>
<path d="M211.646 96.8347L209.109 98.7412C208.974 98.8432 208.946 99.0358 209.048 99.1715L211.713 102.717C211.815 102.853 212.008 102.88 212.144 102.778L214.68 100.872C214.816 100.77 214.843 100.577 214.741 100.441L212.076 96.8957C211.974 96.7601 211.781 96.7328 211.646 96.8347Z" fill="white"/>
<path d="M212.344 104.542L212.304 103.707L213.152 103.206C213.589 102.95 213.987 102.633 214.334 102.264L214.628 101.957L214.441 101.683C214.339 101.535 214.191 101.424 214.02 101.367C213.849 101.31 213.664 101.311 213.493 101.369L212.778 101.609L209.191 102.097V103.62L210.34 105.19L212.344 104.542Z" fill="#FFB573"/>
</svg>
